<?xml version="1.0" standalone="no"?>
<!DOCTYPE svg PUBLIC "-//W3C//DTD SVG 1.1//EN" "http://www.w3.org/Graphics/SVG/1.1/DTD/svg11.dtd" >
<svg xmlns="http://www.w3.org/2000/svg">
<metadata></metadata>
<defs>
<font id="timesregular" horiz-adv-x="1024" >
<font-face units-per-em="2048" ascent="1638" descent="-410" />
<missing-glyph horiz-adv-x="512" />
<glyph unicode="&#xfb01;" horiz-adv-x="1139" d="M63 853v61h143q2 217 112.5 346.5t335.5 129.5q96 0 176 -44t80 -104q0 -31 -21.5 -53.5t-54.5 -22.5q-46 0 -107 85.5t-133 85.5q-73 0 -115 -24.5t-78 -91.5q-20 -50 -26 -104.5t-6 -202.5h292q37 0 83.5 2t78.5 6q9 1 47.5 9t47.5 8q5 0 10 -4t5 -15q0 -9 -4 -58 l-1 -42q-1 -22 -1.5 -43t-0.5 -43v-535q0 -105 29.5 -133t110.5 -38v-28h-450v30q96 9 119 36t23 133v540q0 71 -20.5 89.5t-90.5 21.5q-49 1 -73 2q-71 1 -205 1v-673q0 -91 43 -124q27 -21 104 -28v-28h-450v28q78 3 109 30t31 133v662h-143z" />
<glyph unicode="&#xfb02;" horiz-adv-x="1139" d="M66 0v28q96 16 119 42.5t23 144.5v638h-142v61h144q5 120 17 178q19 93 71 166q35 48 86 82q79 51 177 51q65 0 132.5 -26t83.5 -26q6 0 12 1t12 3l99 38q8 3 13.5 5t10.5 3q9 -6 11 -11t1 -18l-3 -90v-1105q0 -78 24.5 -103t108.5 -34v-28h-441v28q76 11 100 30 q38 30 38 115v680h-387v-692q0 -65 30 -95.5t117 -37.5v-28h-457zM379 914h384v287q-7 -6 -14.5 -9t-22.5 -3q-60 0 -105.5 72.5t-100.5 72.5q-96 0 -123 -116q-18 -73 -18 -304z" />
<glyph horiz-adv-x="0" />
<glyph horiz-adv-x="0" />
<glyph unicode="&#xa;" horiz-adv-x="512" />
<glyph unicode="&#xd;" horiz-adv-x="512" />
<glyph unicode=" "  horiz-adv-x="512" />
<glyph unicode="&#x09;" horiz-adv-x="512" />
<glyph unicode="&#xa0;" horiz-adv-x="512" />
<glyph unicode="!" horiz-adv-x="682" d="M265 85q0 45 32 78t79 33q48 0 80 -33.5t32 -77.5t-33 -75.5t-81 -31.5q-43 0 -76 30t-33 77zM265 1218q0 62 24 114t89 52q67 0 92 -71q13 -37 13 -92q0 -18 -1 -35.5t-4 -41.5l-45 -379l-47 -405h-26l-19 220q-8 94 -44 359q-32 231 -32 279z" />
<glyph unicode="&#x22;" horiz-adv-x="836" d="M188 1299q0 38 22.5 61.5t56.5 23.5q46 0 63.5 -26.5t17.5 -73.5q0 -13 -2.5 -38.5t-4.5 -41.5l-48 -410h-45l-52 407q-4 28 -6 53t-2 45zM485 1284q0 54 21.5 77t59.5 23q48 0 64.5 -27.5t16.5 -73.5q0 -9 -1 -19t-7 -63l-47 -407h-47l-50 398q-7 61 -8.5 72.5 t-1.5 19.5z" />
<glyph unicode="#" d="M0 429l16 75h218l95 346h-218l16 74h219l118 429h123l-118 -429h216l116 429h121l-119 -429h218l-19 -74h-218l-92 -346h218l-22 -75h-215l-116 -429h-124l119 429h-216l-116 -429h-121l116 429h-215zM355 504h216l92 344h-216z" />
<glyph unicode="$" d="M90 104v265h30q29 -124 79 -190q91 -120 272 -123v579q-199 117 -263 180q-103 100 -103 235q0 114 99.5 208t266.5 102v128h69v-128q83 -5 183 -32q93 -29 146 -77v-228h-30q-23 132 -107 204t-192 76v-502q223 -113 309 -203.5t86 -240.5q0 -58 -20 -114 q-30 -87 -102 -146q-55 -46 -132 -69t-141 -28v-181h-69v181q-131 3 -217 30q-57 18 -164 74zM259 1091q0 -82 83 -164q52 -50 127 -93v469q-94 -12 -152 -68.5t-58 -143.5zM540 56q86 16 138 52q97 67 97 205q0 96 -71 169q-43 43 -164 117v-543z" />
<glyph unicode="%" horiz-adv-x="1706" d="M125 870q0 165 134 325t307 160q62 0 101 -16q21 -8 41 -26l38 -34q23 -20 65 -28t86 -8q115 0 212 56q52 29 109 85h80l-789 -1413h-97l713 1280q-75 -35 -112 -46t-98 -11q-54 0 -93 7q-25 4 -50 12q8 -27 11 -44.5t3 -54.5q0 -180 -120.5 -351.5t-295.5 -171.5 q-93 0 -169 71t-76 208zM279 802q0 -66 31.5 -103.5t96.5 -37.5q123 0 225 149t102 325q0 63 -13.5 81t-47.5 26q-24 6 -56.5 29.5t-39.5 23.5q-97 0 -197.5 -173.5t-100.5 -319.5zM919 279q0 173 137.5 326.5t304.5 153.5q87 0 154 -52t67 -193q0 -151 -114 -334t-301 -183 q-101 0 -174.5 68.5t-73.5 213.5zM1074 197q0 -66 38 -101t98 -35q122 0 219.5 159.5t97.5 295.5q0 84 -41 131t-107 47q-119 0 -212 -182t-93 -315z" />
<glyph unicode="&#x26;" horiz-adv-x="1593" d="M82 290q0 139 85.5 244.5t239.5 192.5l78 45q-13 27 -30 74t-24 76q-8 32 -13 64.5t-5 63.5q0 144 88 239t223 95q123 0 202 -67t79 -180q0 -132 -101 -216t-217 -135q88 -160 129.5 -226t140.5 -195q106 130 147 222t41 147q0 56 -41 77q-26 13 -90 18v43h441v-43 q-67 -8 -100 -24q-54 -27 -92 -97l-52 -95q-56 -102 -93.5 -156t-112.5 -149q40 -47 91 -95q111 -95 222 -95q66 0 112 32q28 20 75 77l30 -24q-6 -24 -42 -75.5t-69 -80.5q-52 -46 -121 -65q-41 -12 -80 -12q-97 0 -192 61q-57 36 -152 127q-90 -83 -182 -127 q-120 -60 -264 -60q-160 0 -255.5 85.5t-95.5 233.5zM274 361q0 -114 74 -197.5t190 -83.5q56 0 136 32t153 101q-94 120 -146.5 202t-164.5 286q-103 -61 -158 -122q-84 -94 -84 -218zM575 1138q0 -63 22.5 -136.5t58.5 -151.5q99 55 149 103q90 86 90 190q0 78 -45.5 126 t-115.5 48q-76 0 -117.5 -49t-41.5 -130z" />
<glyph unicode="'" horiz-adv-x="369" d="M103 1299q0 31 13.5 58t60.5 27t61.5 -25.5t14.5 -69.5q0 -7 -0.5 -14t-4.5 -41l-49 -440h-36l-52 407q-3 25 -5.5 49t-2.5 49z" />
<glyph unicode="(" horiz-adv-x="682" d="M94 514q0 348 208 611q128 161 302 259l19 -33q-161 -128 -230 -249q-121 -211 -121 -562q0 -260 46 -429q81 -296 305 -443l-26 -33q-123 59 -266 231q-237 285 -237 648z" />
<glyph unicode=")" horiz-adv-x="682" d="M54 -332q154 117 225 239q126 216 126 571q0 287 -58 469q-81 257 -293 404l26 33q158 -88 294 -266q209 -274 209 -614q0 -149 -39 -282t-114 -251q-79 -126 -211 -235q-87 -72 -146 -101z" />
<glyph unicode="*" d="M135 784q0 72 101 94q160 35 238 86q-79 47 -241 89q-98 25 -98 86q0 34 21 53t49 19q41 0 106 -75.5t177 -140.5v26q0 83 -26.5 166t-26.5 117q0 39 21.5 59.5t51.5 20.5q35 0 53.5 -23t18.5 -58q0 -23 -28 -108.5t-26 -204.5q82 60 100 74.5t43 42.5q72 80 89.5 93.5 t48.5 13.5q30 0 50.5 -22t20.5 -53q0 -63 -90 -82q-150 -32 -246 -95l17 -10q79 -47 232 -78q88 -18 88 -87q0 -37 -26 -54.5t-51 -17.5q-42 0 -114 86.5t-148 124.5l-14 7v-14q0 -118 28.5 -196.5t28.5 -96.5q0 -33 -22.5 -58.5t-58.5 -25.5q-33 0 -52 24t-19 58 q0 9 34 125.5t23 169.5l-3 14q-85 -47 -159 -131t-120 -84q-36 0 -53.5 21t-17.5 45z" />
<glyph unicode="+" horiz-adv-x="1155" d="M61 447v140h448v448h140v-448h446v-140h-446v-447h-140v447h-448z" />
<glyph unicode="," horiz-adv-x="512" d="M215 92q0 40 29 78t95 38q63 0 113 -49.5t50 -137.5q0 -101 -73 -188t-157 -125l-19 40q96 54 132.5 117t36.5 105q0 14 -9 18t-19 4l-67 -7q-42 0 -77 27.5t-35 79.5z" />
<glyph unicode="-" horiz-adv-x="682" d="M80 398v128h503v-128h-503z" />
<glyph unicode="." horiz-adv-x="512" d="M220 90q0 47 33.5 80t80.5 33t80 -33t33 -80t-32.5 -80.5t-80.5 -33.5t-81 33.5t-33 80.5z" />
<glyph unicode="/" horiz-adv-x="569" d="M4 -34l455 1418h100l-453 -1418h-102z" />
<glyph unicode="0" d="M18 679q0 258 91 444q123 253 378 253q230 0 357 -241q101 -195 101 -448q0 -199 -62 -375q-117 -331 -405 -331q-197 0 -324 179q-136 191 -136 519zM216 654q0 -227 34 -363q64 -254 240 -254q147 0 202 161t55 466q0 243 -33 388q-62 270 -232 270t-233 -278 q-33 -148 -33 -390z" />
<glyph unicode="1" d="M227 1159v28l367 187h12q4 -5 4.5 -7.5t0.5 -11.5v-1204q0 -77 41 -98t153 -25v-28h-564v30q121 6 158 33t37 117v926q0 48 -12 73t-52 25q-26 0 -67.5 -14.5t-77.5 -30.5z" />
<glyph unicode="2" d="M61 0v23q366 380 497 558t131 347q0 148 -80 225.5t-191 77.5q-137 0 -222 -100q-47 -55 -90 -169l-43 9q50 230 169.5 319.5t256.5 89.5q169 0 273.5 -106.5t104.5 -260.5q0 -164 -113 -316t-491 -541h459q96 0 135 23t88 112l26 -12l-111 -279h-799z" />
<glyph unicode="3" d="M89 100q0 26 16.5 50t53.5 24q55 0 145.5 -57t153.5 -57q140 0 208 94.5t68 205.5q0 107 -55 188q-93 137 -314 137q-13 0 -25 -0.5t-28 -2.5l-2 26q160 58 252 133t92 198q0 109 -72.5 166t-165.5 57q-110 0 -194 -81q-46 -44 -99 -136l-31 7q40 152 149 243t252 91 q153 0 236.5 -84t83.5 -194q0 -97 -69 -178q-39 -46 -121 -103q96 -41 154 -96q109 -105 109 -266q0 -190 -149.5 -335t-425.5 -145q-123 0 -172.5 36.5t-49.5 78.5z" />
<glyph unicode="4" d="M23 341v133l640 900h95v-900h209v-133h-209v-341h-159v341h-576zM106 474h491v694z" />
<glyph unicode="5" d="M65 108q0 30 21.5 52.5t66.5 22.5q57 0 149.5 -64.5t142.5 -64.5q115 0 201 101.5t86 249.5q0 259 -276 373q-153 63 -285 63q-22 0 -27.5 1.5t-13.5 10.5q2 8 3.5 13.5t3.5 10.5l218 478h429q32 0 49.5 11t45.5 41l16 -14l-78 -185q-4 -9 -22 -11.5t-39 -2.5h-387 l-85 -175q164 -28 240 -53q125 -42 209 -124q72 -71 109 -159.5t37 -187.5q0 -221 -157.5 -369t-398.5 -148q-98 0 -158 19q-100 31 -100 111z" />
<glyph unicode="6" d="M70 582q0 353 280 606q250 212 562 212l5 -33q-125 -23 -215.5 -62.5t-161.5 -110.5q-73 -72 -137 -183t-88 -220q62 38 107 56q80 32 161 32q159 0 267 -110t108 -314q0 -183 -117.5 -330t-305.5 -147q-176 0 -320.5 165t-144.5 439zM259 514q0 -163 69.5 -319 t219.5 -156q119 0 173 101.5t54 237.5q0 133 -42 236q-70 172 -238 172q-155 0 -206 -92q-30 -54 -30 -180z" />
<glyph unicode="7" d="M40 1054q65 160 80.5 197.5t40.5 103.5h758v-33l-434 -1341h-132l405 1223h-436q-97 0 -139.5 -32t-107.5 -134z" />
<glyph unicode="8" d="M109 307q0 127 81 224q53 63 184 151q-132 106 -180 169q-74 96 -74 212q0 132 109.5 224t284.5 92q161 0 256 -87t95 -202q0 -117 -97 -210q-56 -53 -181 -122q170 -126 243.5 -219.5t73.5 -220.5q0 -144 -108.5 -242t-290.5 -98q-163 0 -279.5 90.5t-116.5 238.5z M265 333q0 -137 70.5 -218t179.5 -81q115 0 174 64t59 160q0 109 -62.5 176.5t-256.5 204.5q-86 -54 -125 -140t-39 -166zM272 1124q0 -94 70.5 -174.5t185.5 -151.5q94 66 130 111q62 77 62 186q0 95 -58.5 161.5t-177.5 66.5q-92 0 -152 -58t-60 -141z" />
<glyph unicode="9" d="M61 890q0 213 118.5 351t303.5 138q220 0 340 -175.5t120 -391.5q0 -152 -57 -309t-166 -280q-127 -142 -322 -211q-109 -39 -275 -60l-10 40q104 24 173 51q124 49 199 120q106 101 169.5 225.5t79.5 208.5l-35 -26q-74 -56 -174 -77q-52 -12 -95 -12 q-170 0 -269.5 120.5t-99.5 287.5zM250 967q0 -146 56.5 -270t204.5 -124q68 0 140.5 38t82.5 64q4 10 7 74.5t3 104.5q0 208 -70 338t-205 130q-98 0 -158.5 -89t-60.5 -266z" />
<glyph unicode=":" horiz-adv-x="569" d="M165 96q0 45 32 78.5t79 33.5t82 -32.5t35 -78.5q0 -44 -33 -79t-88 -35q-42 0 -74.5 33t-32.5 80zM165 830q0 46 32 78.5t78 32.5q44 0 78.5 -31.5t34.5 -78.5q0 -50 -34.5 -81.5t-78.5 -31.5q-48 0 -79 34t-31 78z" />
<glyph unicode=";" horiz-adv-x="569" d="M170 92q0 40 29 78t95 38q63 0 113 -49.5t50 -137.5q0 -99 -72 -186.5t-158 -126.5l-19 40q96 54 132.5 117t36.5 105q0 14 -9 18t-19 4l-67 -7q-42 0 -77 27.5t-35 79.5zM173 827q0 47 33 80.5t80 33.5t80.5 -33.5t33.5 -80.5t-33 -80.5t-81 -33.5t-80.5 33.5 t-32.5 80.5z" />
<glyph unicode="&#x3c;" horiz-adv-x="1155" d="M61 490v55l1034 507v-152l-766 -381l766 -384v-152z" />
<glyph unicode="=" horiz-adv-x="1155" d="M61 241v140h1034v-140h-1034zM61 654v140h1034v-140h-1034z" />
<glyph unicode="&#x3e;" horiz-adv-x="1155" d="M18 -17v152l847 384l-847 381v152l1115 -507v-55z" />
<glyph unicode="?" horiz-adv-x="909" d="M135 1094q0 103 89 196t267 93q155 0 256.5 -86t101.5 -239q0 -130 -153 -323q-167 -210 -196 -399h-36q0 37 11 104.5t27 118.5t81 199q33 75 55.5 150.5t22.5 138.5q0 107 -55 191t-173 84q-81 0 -136.5 -43.5t-55.5 -82.5q0 -22 41 -68.5t41 -86.5q0 -33 -24.5 -58 t-59.5 -25q-40 0 -72 34.5t-32 101.5zM372 90q0 46 33 77.5t76 31.5q46 0 79.5 -32t33.5 -77t-33 -77t-78 -32q-47 0 -79 31.5t-32 77.5z" />
<glyph unicode="@" horiz-adv-x="1886" d="M184 630q0 313 248 534q246 220 595 220q271 0 460 -151q198 -160 198 -409q0 -200 -127 -368t-289 -168q-107 0 -158 66q-34 44 -35 96q-23 -61 -90 -112t-143 -51q-113 0 -190.5 77t-77.5 206q0 169 131.5 310.5t287.5 141.5q71 0 121 -36.5t65 -89.5l33 101h164 l-55 -170q-34 -105 -60 -195q-42 -146 -42 -183q0 -20 14 -45q24 -42 74 -42q97 0 200 133.5t103 325.5q0 235 -179.5 360t-394.5 125q-269 0 -483 -185q-232 -200 -232 -489q0 -269 194 -434q184 -156 462 -156q95 0 208 28q173 42 297 136l38 -57q-150 -96 -283 -137 t-289 -41q-315 0 -539 190q-226 193 -226 469zM749 501q0 -65 33.5 -103t89.5 -38q119 0 191.5 192.5t72.5 281.5q0 52 -29 82t-81 30q-101 0 -189 -154t-88 -291z" />
<glyph unicode="A" horiz-adv-x="1479" d="M30 0v37q79 9 118.5 60t135.5 277l427 1005h40l510 -1161q51 -116 81.5 -143.5t102.5 -37.5v-37h-521v37q90 8 116 19.5t26 56.5q0 15 -10 53t-28 80l-85 197h-536q-80 -201 -95.5 -245.5t-15.5 -70.5q0 -52 42 -72q26 -12 98 -18v-37h-406zM443 526h471l-237 564z M731 1379z" />
<glyph unicode="B" horiz-adv-x="1366" d="M35 0v37q124 7 160.5 38.5t36.5 146.5v911q0 113 -36.5 145.5t-160.5 38.5v38h574q246 0 390.5 -79t144.5 -272q0 -145 -101 -220q-57 -43 -171 -71q141 -34 241 -113.5t100 -222.5q0 -240 -222 -330q-117 -47 -288 -47h-668zM440 158q0 -53 30 -68.5t139 -15.5 q157 0 263 61t106 234q0 172 -124 235t-316 63h-60q-12 0 -38 1v-510zM440 746l195 3q103 2 171 33q130 60 130 215q0 183 -150 247q-83 35 -252 35q-64 0 -79 -11t-15 -60v-462z" />
<glyph unicode="C" horiz-adv-x="1366" d="M51 664q0 299 189 502q199 213 518 213q111 0 228 -33t131 -33q29 0 55 16t36 50h43l19 -460h-47q-41 137 -107 221q-126 158 -339 158q-215 0 -351.5 -170t-136.5 -468q0 -274 143.5 -437.5t363.5 -163.5q159 0 293 76q77 43 169 130l38 -38q-68 -86 -169 -151 q-172 -110 -373 -110q-330 0 -524 211q-179 195 -179 487zM751 1379z" />
<glyph unicode="D" horiz-adv-x="1479" d="M33 0v37q112 12 146 40.5t34 144.5v911q0 112 -33 144t-147 40v38h552q279 0 472 -92q348 -165 348 -590q0 -153 -62.5 -291t-188.5 -233q-80 -60 -166 -91q-157 -58 -386 -58h-569zM421 158q0 -50 24.5 -66t101.5 -16q240 0 395 95q238 146 238 499q0 315 -196 474 q-168 136 -445 136q-69 0 -93.5 -15t-24.5 -66v-1041z" />
<glyph unicode="E" horiz-adv-x="1251" d="M23 0v37q113 12 146.5 40.5t33.5 144.5v911q0 109 -33 142.5t-147 41.5v38h1088l7 -294h-52q-26 136 -78 176t-232 40h-278q-45 0 -55.5 -14.5t-10.5 -54.5v-457h315q131 0 167 39t58 158h48v-474h-48q-23 119 -59 157.5t-166 38.5h-315v-507q0 -61 38.5 -72t230.5 -11 q208 0 307 45.5t178 220.5h57l-93 -346h-1107zM627 1355z" />
<glyph unicode="F" horiz-adv-x="1139" d="M23 0v37q121 13 150.5 44.5t29.5 164.5v887q0 109 -33 142.5t-147 41.5v38h1091l7 -294h-57q-21 141 -79 178.5t-229 37.5h-280q-41 0 -52.5 -14t-11.5 -55v-457h296q131 0 167 39t58 158h48v-474h-48q-23 119 -59 157.5t-166 38.5h-296v-448q0 -113 34.5 -144.5 t150.5 -40.5v-37h-574z" />
<glyph unicode="G" horiz-adv-x="1479" d="M49 664q0 286 181 490q199 225 528 225q119 0 234 -33t132 -33q44 0 62.5 17t31.5 49h45l16 -431h-47q-63 149 -130 222q-121 128 -315 128q-197 0 -346.5 -149.5t-149.5 -492.5q0 -283 149 -442t368 -159q37 0 87 7t95 22q73 24 91 41.5t18 51.5v327q0 118 -33.5 147 t-146.5 36v38h522v-38q-76 -5 -101 -25q-42 -32 -42 -132v-403q0 -36 -176.5 -96t-339.5 -60q-300 0 -506 175q-227 193 -227 518zM725 1379z" />
<glyph unicode="H" horiz-adv-x="1479" d="M33 0v37q120 13 150 44.5t30 164.5v887q0 110 -33.5 143t-146.5 41v38h569v-38q-113 -8 -147 -41t-34 -143v-399h621v399q0 110 -33 143t-147 41v38h569v-38q-113 -8 -146.5 -41t-33.5 -143v-911q0 -112 33.5 -143.5t146.5 -41.5v-37h-569v37q121 12 150.5 44t29.5 165 v398h-621v-422q0 -112 34 -144t147 -41v-37h-569z" />
<glyph unicode="I" horiz-adv-x="682" d="M33 0v37q125 9 162 37.5t37 147.5v911q0 113 -37 145.5t-162 38.5v38h606v-38q-125 -6 -162 -38.5t-37 -145.5v-911q0 -119 37 -147.5t162 -37.5v-37h-606zM336 1355z" />
<glyph unicode="J" horiz-adv-x="797" d="M21 118q0 55 30.5 78.5t65.5 23.5q69 0 102 -85.5t70 -85.5q40 0 55.5 35t15.5 122v927q0 114 -37 146t-153 38v38h588v-38q-119 -7 -154.5 -42.5t-35.5 -141.5v-752q0 -206 -99 -305q-99 -100 -245 -100q-96 0 -149.5 44t-53.5 98z" />
<glyph unicode="K" horiz-adv-x="1479" d="M37 0v37q125 10 155 44.5t30 164.5v887q0 111 -33.5 143.5t-151.5 40.5v38h584v-38q-120 -6 -155 -40t-35 -144v-420q189 161 309 274q215 205 215 263q0 41 -36.5 54t-103.5 13v38h536v-33q-98 -10 -154.5 -39t-156.5 -127l-389 -381l477 -515q133 -143 181 -178.5 t141 -46.5v-35h-626v37q85 3 115 13.5t30 41.5q0 17 -19.5 52t-61.5 81l-388 426l-69 -59v-370q0 -114 34.5 -144.5t150.5 -40.5v-37h-579z" />
<glyph unicode="L" horiz-adv-x="1251" d="M23 0v37q113 12 146.5 40.5t33.5 144.5v911q0 109 -33 142.5t-147 41.5v38h579v-38q-113 -6 -151.5 -37t-38.5 -133v-984q0 -34 11.5 -53.5t50.5 -24.5q23 -3 48.5 -4t95.5 -1q273 0 369 45t186 230h52l-100 -355h-1102z" />
<glyph unicode="M" horiz-adv-x="1821" d="M23 0v37q127 13 163 57.5t36 206.5v832q0 111 -35 144.5t-159 39.5v38h405l474 -1033l453 1033h408v-38q-114 -8 -147 -41.5t-33 -142.5v-911q0 -112 33 -143.5t147 -41.5v-37h-574v37q124 10 154.5 44.5t30.5 164.5v920l-524 -1166h-28l-515 1118v-817q0 -168 49 -219 q32 -33 143 -45v-37h-481z" />
<glyph unicode="N" horiz-adv-x="1479" d="M23 0v37q127 13 163 57.5t36 206.5v903l-28 33q-45 53 -76.5 65.5t-94.5 14.5v38h351l789 -986v685q0 169 -50 220q-33 33 -146 43v38h481v-38q-117 -12 -156 -57t-39 -206v-1078h-35l-906 1123v-798q0 -168 49 -219q32 -33 143 -45v-37h-481zM741 1355z" />
<glyph unicode="O" horiz-adv-x="1479" d="M61 677q0 328 206 526q189 181 465 181q277 0 466 -182q205 -197 205 -525q0 -333 -212 -530q-190 -176 -459 -176q-288 0 -478 195q-193 199 -193 511zM293 677q0 -323 127 -477.5t312 -154.5q181 0 309.5 150.5t128.5 481.5q0 335 -130 484t-308 149 q-184 0 -311.5 -154.5t-127.5 -478.5zM732 1384z" />
<glyph unicode="P" horiz-adv-x="1139" d="M33 0v37q117 11 146 46.5t29 162.5v887q0 107 -32.5 141t-142.5 43v38h540q260 0 398 -101t138 -266q0 -209 -153 -303t-383 -94q-33 0 -84.5 1.5t-76.5 1.5v-372q0 -116 35.5 -146t158.5 -39v-37h-573zM412 677q55 -5 72 -6t33 -1q141 0 222 40q147 73 147 273 q0 188 -162 258q-87 38 -220 38q-63 0 -77.5 -12.5t-14.5 -55.5v-534z" />
<glyph unicode="Q" horiz-adv-x="1479" d="M61 677q0 328 206 526q189 181 465 181q272 0 462 -179q209 -197 209 -528q0 -262 -133 -443q-144 -195 -408 -246q124 -179 300 -254q99 -42 267 -62v-37h-84q-166 0 -294.5 27t-233.5 82q-105 54 -194.5 150t-99.5 101l-26 12q-170 79 -263 180q-173 187 -173 490z M293 677q0 -323 127 -477.5t312 -154.5q181 0 309.5 150.5t128.5 481.5q0 335 -130 484t-308 149q-184 0 -311.5 -154.5t-127.5 -478.5z" />
<glyph unicode="R" horiz-adv-x="1366" d="M23 0v37q118 11 147 46t29 163v887q0 108 -32.5 141.5t-143.5 42.5v38h567q177 0 295 -45q224 -85 224 -313q0 -153 -99.5 -235t-270.5 -108l422 -519q39 -48 78 -70t100 -28v-37h-330l-488 630l-114 -5v-403q0 -114 34.5 -144.5t150.5 -40.5v-37h-569zM407 701 q221 8 316 46q163 67 163 252q0 178 -146 243q-78 35 -207 35q-87 0 -106.5 -12.5t-19.5 -58.5v-505z" />
<glyph unicode="S" horiz-adv-x="1139" d="M85 412h47q52 -138 122 -220q122 -143 303 -143q98 0 169.5 62t71.5 173q0 100 -72 174q-47 47 -198 141l-175 109q-79 50 -126 101q-87 97 -87 214q0 155 103 258t273 103q70 0 168.5 -34.5t112.5 -34.5q38 0 52.5 18t22.5 51h42l45 -436h-49q-50 197 -160.5 275 t-218.5 78q-84 0 -146.5 -49.5t-62.5 -137.5q0 -79 48 -135q48 -57 149 -119l180 -111q169 -104 238 -191q68 -88 68 -208q0 -161 -121.5 -269t-310.5 -108q-95 0 -198.5 36t-118.5 36q-36 0 -48.5 -22t-16.5 -47h-45zM570 1384z" />
<glyph unicode="T" horiz-adv-x="1251" d="M28 1007l12 348h1157l11 -348h-49q-36 164 -91.5 213.5t-233.5 49.5h-114v-1048q0 -119 37 -147.5t162 -37.5v-37h-597v37q130 10 162 43t32 166v1024h-114q-170 0 -231.5 -49t-92.5 -214h-50z" />
<glyph unicode="U" horiz-adv-x="1479" d="M28 1317v38h581v-38q-118 -8 -153 -39.5t-35 -144.5v-655q0 -161 44 -251q82 -164 311 -164q251 0 337 168q48 94 48 290v533q0 167 -40 209.5t-152 53.5v38h474v-38q-119 -13 -155.5 -57.5t-36.5 -205.5v-533q0 -212 -65 -331q-120 -219 -456 -219q-332 0 -452 216 q-65 116 -65 306v640q0 112 -34.5 143.5t-150.5 40.5zM741 1355z" />
<glyph unicode="V" horiz-adv-x="1479" d="M33 1320v35h545v-38q-77 -1 -105 -10q-49 -16 -49 -65q0 -25 17.5 -70t65.5 -151l320 -713l291 772q19 51 29 86t10 57q0 59 -51 80q-30 12 -99 14v38h419v-35q-65 -9 -96 -35q-47 -39 -93 -157l-453 -1152h-31l-505 1126q-64 143 -102.5 178t-112.5 40z" />
<glyph unicode="W" horiz-adv-x="1933" d="M9 1317v38h502v-38q-61 -2 -87 -11q-46 -17 -46 -62q0 -20 5.5 -39t16.5 -49l296 -770l218 578l-97 247q-27 68 -81 91q-32 14 -97 15v38h548v-38q-77 -1 -106 -11q-46 -17 -46 -70q0 -18 4 -31.5t20 -55.5l296 -768l256 695q22 59 30 105q5 26 5 42q0 57 -54 79 q-30 13 -90 15v38h406v-38q-55 -8 -84 -25q-52 -29 -78 -100l-218 -609l-85 -235l-123 -372h-31l-83 237l-244 630l-315 -867h-31l-147 426l-176 479q-109 296 -151.5 363.5t-132.5 72.5z" />
<glyph unicode="X" horiz-adv-x="1479" d="M21 0v37q83 9 126 44t170 191l320 394l-227 329q-147 213 -206.5 265.5t-158.5 56.5v38h618v-38q-89 -3 -116 -12q-41 -13 -41 -57q0 -28 20 -67q10 -20 28 -46l213 -308l233 282q51 61 69 98q11 22 11 40q0 45 -44 60q-27 9 -98 10v38h486v-38q-82 -2 -127 -26 q-71 -39 -176 -168l-301 -370l393 -564q63 -91 105 -115.5t123 -36.5v-37h-607v40q87 2 121.5 15t34.5 50q0 32 -46 106t-255 381l-242 -306q-53 -67 -74 -98q-33 -49 -33 -73q0 -44 52 -62q31 -11 105 -16v-37h-476z" />
<glyph unicode="Y" horiz-adv-x="1479" d="M45 1317v38h573v-38h-19q-58 0 -89 -11q-36 -13 -36 -56q0 -13 6 -32.5t27 -51.5l303 -455l294 462q18 29 23.5 48t5.5 28q0 44 -47 58q-28 9 -96 10v38h448v-38q-62 -3 -111 -37q-76 -53 -171 -197l-303 -462v-399q0 -119 38.5 -148.5t172.5 -36.5v-37h-626v37 q139 8 172.5 41.5t33.5 167.5v356l-268 393q-139 203 -195 260.5t-136 61.5zM741 1355z" />
<glyph unicode="Z" horiz-adv-x="1251" d="M14 0v23l898 1254h-472q-178 0 -253 -89q-45 -53 -71 -183h-53l41 350h1081v-23l-889 -1254h526q179 0 261 85q51 54 92 197h48l-50 -360h-1159zM627 1355z" />
<glyph unicode="[" horiz-adv-x="682" d="M180 -323v1678h431v-49h-182q-60 0 -81 -38q-12 -20 -12 -55v-1377q0 -46 13 -68q22 -39 87 -39h175v-52h-431z" />
<glyph unicode="\" horiz-adv-x="569" d="M-64 1384h137l559 -1384h-135z" />
<glyph unicode="]" horiz-adv-x="682" d="M68 -273h183q59 0 81 37q11 20 11 55v1378q0 49 -19.5 77.5t-79.5 28.5h-176v52h432v-1678h-432v50z" />
<glyph unicode="^" horiz-adv-x="961" d="M66 519l386 865h55l386 -865h-137l-275 647l-278 -647h-137z" />
<glyph unicode="_" d="M0 -155h1023v-101h-1023v101z" />
<glyph unicode="`" horiz-adv-x="682" d="M-20 1324q0 29 21 47.5t48 18.5q26 0 48 -14.5t42 -34.5l301 -303h-83l-315 199q-33 21 -47.5 41t-14.5 46zM278 938z" />
<glyph unicode="a" horiz-adv-x="909" d="M75 199q0 145 145 242q92 60 367 163v85q0 102 -20 142q-34 67 -141 67q-51 0 -97 -26q-46 -27 -46 -74q0 -12 5 -40.5t5 -36.5q0 -56 -37 -78q-21 -13 -50 -13q-45 0 -69 29.5t-24 65.5q0 70 86.5 146.5t253.5 76.5q194 0 263 -126q37 -69 37 -201v-401q0 -58 8 -80 q13 -39 54 -39q23 0 38 7t52 34v-52q-32 -39 -69 -64q-56 -38 -114 -38q-68 0 -98.5 44t-33.5 105q-76 -66 -130 -98q-91 -54 -173 -54q-86 0 -149 60.5t-63 153.5zM253 268q0 -91 60 -134q39 -28 87 -28q66 0 126.5 37t60.5 94v317q-115 -38 -190 -84q-144 -89 -144 -202z M456 948z" />
<glyph unicode="b" d="M7 1272v34q114 26 205 58t98 32q2 -6 2 -12v-609q26 48 78 91q92 75 212 75q147 0 251 -124t104 -322q0 -212 -135 -363t-355 -151q-111 0 -218 44t-107 88v1057q0 58 -16 82.5t-74 24.5zM308 146q9 -52 78 -74.5t121 -22.5q140 0 207.5 105t67.5 254t-63 275.5 t-204 126.5q-71 0 -139 -43.5t-68 -110.5v-510z" />
<glyph unicode="c" horiz-adv-x="909" d="M47 438q0 207 131 356t331 149q125 0 215.5 -64.5t90.5 -141.5q0 -33 -23 -61.5t-71 -28.5q-35 0 -61.5 24t-38.5 70l-12 48q-13 53 -45 75q-33 21 -87 21q-114 0 -192.5 -99.5t-78.5 -264.5q0 -151 86.5 -271t233.5 -120q104 0 185 68q46 39 104 124l28 -17 q-57 -120 -120 -190q-121 -134 -280 -134q-156 0 -276 123t-120 334zM465 943z" />
<glyph unicode="d" d="M49 417q0 217 126.5 372.5t309.5 155.5q73 0 134 -32q40 -21 77 -58v318q0 61 -13.5 84t-64.5 23q-12 0 -21 -1t-40 -4v33l82 21q45 12 90 25t79 25q16 5 53 19l6 -2l-2 -105q-1 -57 -2 -117.5t-1 -119.5l-2 -817q0 -65 16 -91t85 -26q11 0 22 0.5t22 2.5v-33 q-6 -2 -145 -50l-157 -59l-7 9v123q-56 -61 -97 -87q-73 -45 -169 -45q-170 0 -275.5 131.5t-105.5 304.5zM225 502q0 -161 74.5 -287t222.5 -126q78 0 126 46t48 87v429q0 130 -69.5 183.5t-135.5 53.5q-126 0 -196 -111.5t-70 -274.5z" />
<glyph unicode="e" horiz-adv-x="909" d="M40 445q0 201 119 347t310 146q141 0 247 -97.5t106 -276.5h-635q10 -232 105 -338t225 -106q105 0 177 55t133 156l35 -12q-41 -127 -153.5 -235t-275.5 -108q-188 0 -290.5 142t-102.5 327zM191 628h422q-11 100 -38 149q-49 88 -164 88q-114 0 -174 -101 q-32 -54 -46 -136zM456 938z" />
<glyph unicode="f" horiz-adv-x="682" d="M40 0v28q106 5 139.5 39.5t33.5 145.5v642h-171v67h171q0 158 43 267q82 209 301 209q88 0 157.5 -35t69.5 -94q0 -33 -24 -59t-58 -26q-29 0 -50 17.5t-50 61.5l-17 26q-14 21 -33 35.5t-53 14.5q-76 0 -103 -75q-15 -40 -15 -105v-237h251v-67h-249v-642 q0 -113 30.5 -144.5t159.5 -40.5v-28h-533z" />
<glyph unicode="g" d="M54 -240q0 36 25.5 70.5t100.5 102.5l66 59l12 12q-46 18 -69 35q-40 31 -40 71q0 37 34.5 81.5t147.5 144.5q-91 30 -141.5 107t-50.5 173q0 117 93 222t263 105q73 0 161 -34.5t169 -34.5q21 0 63.5 1.5t61.5 1.5h12v-81h-173q18 -42 28 -73q17 -58 17 -110 q0 -114 -94.5 -209.5t-254.5 -95.5q-25 0 -90 9q-29 0 -76.5 -49t-47.5 -80q0 -32 70 -47q46 -10 102 -10q257 0 349 -29q151 -47 151 -202q0 -158 -176.5 -252t-356.5 -94q-164 0 -260 66.5t-96 139.5zM201 -185q0 -84 94.5 -116t216.5 -32q166 0 270 57.5t104 141.5 q0 67 -84 89q-52 13 -197 15q-37 1 -78 2.5t-75 3.5q-22 1 -71 8t-73 12q-12 0 -59 -63q-48 -64 -48 -118zM309 672q0 -122 59 -219t153 -97q55 0 92 30q60 48 60 167q0 95 -48.5 214t-161.5 119q-98 0 -135 -93q-19 -49 -19 -121zM513 943z" />
<glyph unicode="h" d="M18 0v28q82 11 107.5 40.5t25.5 139.5v960q0 56 -14.5 82.5t-70.5 26.5q-11 0 -21.5 -1.5t-23.5 -3.5v36q44 13 108.5 31.5t89.5 26.5l96 30l2 -7v-614q63 72 112 106q88 60 190 60q162 0 221 -136q32 -72 32 -189v-408q0 -106 24.5 -138t100.5 -42v-28h-433v28 q87 12 112 41t25 139v405q0 97 -32.5 157t-122.5 60q-78 0 -151 -56t-73 -73v-493q0 -112 26 -140t111 -40v-28h-441z" />
<glyph unicode="i" horiz-adv-x="569" d="M40 0v28q107 10 135 36.5t28 143.5v477q0 65 -9 90q-15 41 -63 41q-11 0 -21.5 -2t-60.5 -16v31l43 14q175 57 244 86q28 12 36 12q2 -7 2 -15v-718q0 -114 27.5 -143t124.5 -37v-28h-486zM168 1291q0 43 30 74t74 31q43 0 73.5 -30.5t30.5 -74.5q0 -43 -30.5 -73.5 t-73.5 -30.5q-44 0 -74 30.5t-30 73.5z" />
<glyph unicode="j" horiz-adv-x="569" d="M-118 -338q0 33 23 58.5t59 25.5q52 0 101.5 -63t87.5 -63q63 0 85 73q13 44 14 147q1 37 1 182v658q0 68 -13 100.5t-60 32.5q-14 0 -36.5 -5t-46.5 -12v31l85 28q31 10 80.5 27.5t94.5 34.5l60 21q4 -6 4 -14v-924q0 -173 -44 -270q-80 -178 -306 -178q-74 0 -131.5 30 t-57.5 80zM225 1291q0 43 30 74t74 31q43 0 73.5 -31t30.5 -74t-30.5 -73.5t-73.5 -30.5q-44 0 -74 30.5t-30 73.5z" />
<glyph unicode="k" d="M4 0v28q96 7 126.5 32t30.5 108v1002q0 71 -24 90t-69 19q-19 0 -33 -1t-31 -3v28l90 24q103 27 175 51q44 15 51 15q6 0 7.5 -2.5t1.5 -11.5v-841l277 244q30 27 40.5 43t10.5 28q0 23 -22.5 29t-80.5 9v28h417v-28q-112 -7 -180 -44.5t-261 -214.5l-59 -54l185 -240 q142 -184 214 -244.5t153 -67.5v-26h-445v28l35 2q17 1 31 7t14 20q0 11 -5 20.5t-14 21.5l-310 408v-370q0 -69 51 -92q30 -14 103 -15v-30h-479z" />
<glyph unicode="l" horiz-adv-x="569" d="M37 1275v33q135 36 325 96q7 0 8.5 -6t1.5 -26v-1199q0 -87 30 -112.5t124 -32.5v-28h-484v28q93 9 126 37.5t33 111.5v977q0 66 -11 91q-20 42 -81 42q-14 0 -30.5 -3t-41.5 -9z" />
<glyph unicode="m" horiz-adv-x="1593" d="M33 0v26q78 7 104 26q40 29 40 116v517q0 74 -19.5 97t-64.5 23q-21 0 -31.5 -2t-24.5 -7v35l72 24q39 13 128 47t94 34t6 -5t1 -19v-135q99 90 171 124.5t148 34.5q103 0 164 -70q32 -38 53 -103q74 75 129 111q95 62 194 62q161 0 215 -131q31 -74 31 -234v-415 q0 -71 31.5 -96.5t113.5 -33.5v-26h-451v28q87 8 114.5 35t27.5 110v431q0 97 -21 143q-37 82 -145 82q-65 0 -129 -43q-37 -25 -91 -80v-512q0 -81 28.5 -123t120.5 -45v-26h-459v26q95 12 121 46t26 167v280q0 154 -20 212q-33 98 -140 98q-61 0 -120 -33.5t-104 -87.5 v-547q0 -76 26.5 -105t115.5 -30v-26h-455z" />
<glyph unicode="n" d="M33 813v35q41 12 194 62l94 31q7 0 8.5 -5t1.5 -14v-147q92 86 144 118q78 49 162 49q68 0 124 -39q108 -76 108 -271v-467q0 -72 29 -104t97 -33v-28h-427v28q73 10 102 40.5t29 132.5v427q0 86 -32 142.5t-118 56.5q-59 0 -120 -40q-34 -23 -88 -76v-560 q0 -72 32 -96.5t101 -26.5v-28h-437v28q71 9 99.5 35.5t28.5 118.5v507q0 64 -12 90q-19 38 -78 38q-9 0 -18.5 -1t-23.5 -3zM513 942z" />
<glyph unicode="o" d="M52 464q0 199 126.5 336.5t325.5 137.5q198 0 328 -130t130 -346q0 -199 -126 -346t-326 -147q-192 0 -325 141t-133 354zM239 512q0 -178 80.5 -332t223.5 -154q112 0 172.5 103t60.5 270q0 173 -77 326t-223 153q-79 0 -137 -52q-100 -91 -100 -314zM513 938z" />
<glyph unicode="p" d="M9 -413q94 6 119.5 40t25.5 107v960q0 76 -18.5 97.5t-69.5 21.5q-11 0 -20.5 -1t-27.5 -4v33l95 31q5 1 201 69q5 0 7.5 -4.5t2.5 -10.5v-135q66 66 116 98q90 56 185 56q138 0 237.5 -117.5t99.5 -321.5q0 -200 -119.5 -363t-300.5 -163q-56 0 -97 14q-64 21 -118 77 v-327q0 -101 33 -124t144 -31v-35h-495v33zM327 184q26 -68 77.5 -101.5t121.5 -33.5q108 0 184.5 107.5t76.5 299.5q0 184 -79.5 275t-184.5 91q-74 0 -135 -45.5t-61 -89.5v-503z" />
<glyph unicode="q" d="M49 434q0 206 128.5 357.5t333.5 151.5q68 0 120 -19q35 -12 106 -52l111 66q9 4 14 5q5 -4 6 -6t1 -13v-1216q0 -53 19 -79q29 -39 112 -47v-28h-484v33q89 1 132.5 30t43.5 129v381q-70 -69 -121 -99q-84 -49 -189 -49q-125 0 -229 115.5t-104 339.5zM225 502 q0 -177 68.5 -286t194.5 -109q24 0 64.5 8t75.5 27q48 26 58 46t10 75v422q0 79 -24 123q-45 80 -170 80q-142 0 -209.5 -117.5t-67.5 -268.5z" />
<glyph unicode="r" horiz-adv-x="682" d="M9 0v33q92 8 122 32.5t30 104.5v451q0 99 -18.5 141.5t-67.5 42.5q-10 0 -26.5 -2.5t-34.5 -6.5v33q57 20 117 41t83 30q50 19 103 43q7 0 8.5 -5t1.5 -21v-164q64 89 123.5 139t123.5 50q51 0 83 -30.5t32 -76.5q0 -41 -24.5 -69t-61.5 -28q-38 0 -76.5 35t-60.5 35 q-35 0 -86 -56.5t-51 -116.5v-451q0 -86 40 -120q38 -32 123 -31h10v-33h-493z" />
<glyph unicode="s" horiz-adv-x="797" d="M104 689q0 112 80 184t201 72q53 0 116.5 -20t71.5 -20q18 0 26 5t14 16h24l7 -279h-31q-20 97 -54 151q-62 100 -179 100q-70 0 -110 -43t-40 -101q0 -92 138 -164l132 -71q213 -116 213 -270q0 -118 -88.5 -193t-231.5 -75q-60 0 -136 20t-90 20q-12 0 -21 -8.5 t-14 -20.5h-26v323h33q23 -114 62 -175q70 -112 205 -112q75 0 118.5 41.5t43.5 107.5q0 42 -25 81t-88 76l-112 64q-123 66 -181 133t-58 158zM399 945z" />
<glyph unicode="t" horiz-adv-x="569" d="M25 864q0 10 4.5 15.5t28.5 25.5q69 57 99.5 92.5t143.5 187.5q13 0 15.5 -2t2.5 -15v-246h202v-72h-204l-2 -576q0 -76 13 -115q24 -69 94 -69q36 0 62.5 17t60.5 54l26 -22l-22 -30q-52 -70 -110 -99t-112 -29q-118 0 -160 105q-23 57 -23 158v606h-109q-5 3 -7.5 6 t-2.5 8z" />
<glyph unicode="u" d="M18 898v28h299v-640q0 -68 19 -109q37 -76 136 -76q68 0 133 45q37 25 75 69v548q0 77 -30 101t-120 29v33h323v-704q1 -68 25 -94q22 -23 87 -22h16v-28q-55 -15 -81 -22.5t-87 -27.5q-26 -9 -114 -43q-5 0 -6 4.5t-1 10.5v161q-68 -81 -124 -120q-85 -60 -180 -60 q-87 0 -164 62q-78 61 -78 205v519q0 80 -34 107q-22 17 -94 24zM513 938z" />
<glyph unicode="v" d="M37 898v31h403v-31q-52 -6 -73.5 -16t-21.5 -44q0 -16 4.5 -30.5t15.5 -42.5l208 -517l180 458q13 33 24.5 69t11.5 55q0 39 -37 56q-22 9 -60 12v31h284v-31q-49 -4 -70.5 -32.5t-62.5 -131.5l-289 -720q-8 -19 -13 -26t-14 -7q-10 0 -17 11.5t-15 28.5l-306 732 q-37 89 -79 121q-25 18 -73 24z" />
<glyph unicode="w" horiz-adv-x="1479" d="M42 898v31h370v-31q-46 -4 -70.5 -16.5t-24.5 -53.5q0 -29 41 -142q24 -65 61 -158l114 -284l180 386l2 12q0 20 -21.5 74.5t-41.5 97.5q-20 45 -45.5 62.5t-71.5 21.5v31h417v-31q-60 -7 -89 -20t-29 -52q0 -21 6.5 -43.5t17.5 -52.5l182 -475l178 434q12 28 26 73.5 t14 68.5q0 37 -23 50t-67 19v29h254v-29q-25 -5 -41 -24t-45 -90l-320 -789q-4 -9 -7 -13t-9 -4q-12 6 -14 10l-226 559l-263 -557q-2 -5 -5.5 -8.5t-8.5 -3.5q-12 6 -14 10l-299 737q-49 121 -65 142.5t-63 28.5z" />
<glyph unicode="x" d="M35 0v28q54 11 80 28t69 79l233 339l-192 291q-58 87 -80 103t-96 23v28h425v-28q-38 -1 -64.5 -10.5t-26.5 -39.5q0 -19 53 -107q28 -46 71 -113q59 81 88 127q49 74 49 96q0 26 -21 35t-59 12v28h322v-28q-51 -4 -95 -27.5t-71 -62.5l-171 -247l264 -400 q51 -78 86.5 -101t81.5 -25v-28h-413v28l29 2q23 2 38.5 14t15.5 30q0 19 -38 84q-18 32 -54 87q-17 27 -50.5 75t-56.5 82l-161 -251q-29 -45 -36 -60t-7 -25q0 -19 15.5 -25t67.5 -13v-28h-296z" />
<glyph unicode="y" d="M28 891v28h422v-31q-50 -1 -74 -9q-46 -13 -46 -51q0 -14 5 -28.5t18 -43.5l234 -519l188 523q3 8 9.5 36t6.5 38q0 26 -18 38t-46 14l-31 2v31h275v-31q-41 -5 -61.5 -28t-35.5 -64l-315 -834q-82 -216 -157 -313t-190 -97q-56 0 -105 28t-49 89q0 40 29.5 65.5 t74.5 25.5q26 0 77.5 -19t73.5 -19q56 0 118 130t62 174q0 9 -3 22t-7 23l-320 692q-34 74 -59.5 97.5t-75.5 30.5zM504 938z" />
<glyph unicode="z" horiz-adv-x="909" d="M52 0v23l547 835h-268q-108 0 -141 -37t-46 -144h-35l4 242h716v-24l-555 -832h283q147 0 186 37.5t77 183.5l35 -7l-28 -277h-775zM456 938z" />
<glyph unicode="{" horiz-adv-x="983" d="M127 474v73q121 13 185 54q98 64 98 204l2 275q0 185 145 252q84 39 298 52v-45q-108 -12 -197.5 -70.5t-89.5 -192.5v-245q0 -158 -76 -217t-270 -98l-35 -7v-5q205 -16 292 -93t89 -203l3 -282q1 -124 101 -186q57 -35 183 -60v-45q-201 0 -322 69t-121 232l-2 308 q0 116 -104 175q-59 33 -179 55z" />
<glyph unicode="|" horiz-adv-x="410" d="M135 0v1398h139v-1398h-139z" />
<glyph unicode="}" horiz-adv-x="983" d="M127 -320q126 25 183 60q102 62 102 186l2 282q0 136 97 208t285 88v5q-217 43 -281 86q-101 68 -101 236v245q0 143 -119 212q-67 39 -168 51v45q257 0 350.5 -82.5t93.5 -221.5l2 -275q0 -145 105 -208q60 -37 177 -50v-73q-123 -23 -181 -56q-101 -59 -101 -174 l-2 -308q0 -162 -120 -231.5t-324 -69.5v45z" />
<glyph unicode="~" horiz-adv-x="1108" d="M28 327q34 143 75 213q73 126 197 126q70 0 273 -82t259 -82q74 0 125 69q29 39 69 140h52q-50 -198 -119.5 -271t-162.5 -73q-86 0 -283.5 84t-243.5 84q-82 0 -139 -87q-30 -45 -55 -121h-47z" />
<glyph unicode="&#xa1;" horiz-adv-x="682" d="M187 838q0 47 33 77t78 30q47 0 79.5 -31.5t32.5 -72.5q0 -50 -33.5 -82t-78.5 -32q-46 0 -78.5 32.5t-32.5 78.5zM191 -297q0 15 1 34.5t4 41.5l93 785h26l19 -221q12 -136 47 -381q29 -205 29 -256q0 -56 -16 -96q-29 -70 -98 -70q-67 0 -92 67q-13 36 -13 96z" />
<glyph unicode="&#xa2;" d="M109 440q0 196 142 349.5t308 153.5q29 0 55 -3.5t49 -8.5l90 254h71l-94 -275q58 -27 90 -54q61 -52 61 -117q0 -43 -22.5 -69t-64.5 -26q-43 0 -74 34q-18 20 -45 73l-206 -595q41 -15 64 -20t57 -5q104 0 189 72q52 43 112 133l26 -17q-78 -182 -183 -262t-205 -80 q-31 0 -52 4t-65 16l-102 -282h-69l105 308q-103 46 -170 162.5t-67 254.5zM262 523q0 -131 53 -221q30 -51 90 -101l234 661q-21 10 -39 14.5t-55 4.5q-118 0 -200.5 -99.5t-82.5 -258.5z" />
<glyph unicode="&#xa3;" d="M22 118q0 52 47 99.5t144 47.5q18 0 37.5 -2t57.5 -8q1 19 1.5 25.5t0.5 15.5q0 57 -10 153q-7 59 -28 221h-225v93h216q-4 35 -7 85.5t-3 88.5q0 183 104.5 315t292.5 132q101 0 184 -51.5t83 -139.5q0 -39 -24.5 -73t-70.5 -34q-30 0 -54 16q-42 29 -38 97l2 33 q3 37 -26 66t-90 29q-122 0 -166 -125q-24 -66 -24 -177q0 -34 6 -112.5t15 -149.5h256v-93h-248q0 -30 1 -52t1 -38q0 -83 -13.5 -181.5t-36.5 -171.5q50 -23 114 -41q102 -30 186 -30q70 0 122 19t109 73l33 31q4 4 9 6.5t13 5.5l12 -9q-9 -84 -103 -191t-251 -107 q-77 0 -188 62q-49 28 -98 65q-65 -74 -95 -96q-48 -35 -110 -35q-49 0 -93.5 34t-44.5 104zM77 118q0 -21 10 -40q21 -38 73 -38q63 0 100 50q24 32 29 71q-24 19 -68 26q-23 4 -50 4q-43 0 -68.5 -20.5t-25.5 -52.5z" />
<glyph unicode="&#xa4;" d="M66 319l118 119q-43 55 -65 114t-22 123q0 84 30 153q17 39 57 96l-118 118l52 53l121 -114q43 32 85 50q75 33 159 33q82 0 146 -29q39 -17 93 -59l119 119l57 -53l-121 -118q40 -51 56 -89q32 -67 32 -162q0 -62 -19 -117t-69 -118l121 -119l-57 -56l-119 118 q-54 -42 -110.5 -62.5t-130.5 -20.5q-93 0 -163 32q-39 19 -79 53l-121 -120zM213 680q0 -111 78.5 -189.5t189.5 -78.5t189.5 78.5t78.5 189.5t-78.5 190.5t-189.5 79.5t-189.5 -79.5t-78.5 -190.5z" />
<glyph unicode="&#xa5;" d="M14 1317v38h419v-38q-44 1 -68 -7q-41 -14 -41 -56q0 -13 7 -37.5t19 -50.5l221 -455l215 462q8 18 15 43t7 34q0 43 -28.5 54.5t-76.5 12.5v38h328v-38q-46 -2 -92 -46t-115 -188l-132 -275h215v-64h-244l-59 -123v-88h273v-64h-273v-195q1 -116 2 -130q6 -66 47 -88 q26 -14 105 -19v-37h-457v37q101 8 125 40.5t24 168.5v223h-285v64h285v69l-67 139h-246v67h213l-95 187q75 -142 -53 102q-42 80 -66 122q-26 44 -52.5 69t-69.5 29z" />
<glyph unicode="&#xa6;" horiz-adv-x="410" d="M135 0v540h139v-540h-139zM135 858v540h139v-540h-139z" />
<glyph unicode="&#xa7;" d="M146 584q0 116 78 183t168 67q8 0 14.5 -0.5t17.5 -2.5q-112 91 -155.5 157.5t-43.5 153.5q0 99 85 173t206 74q102 0 179.5 -58.5t77.5 -141.5q0 -41 -26.5 -76t-80.5 -35q-42 0 -68.5 27.5t-26.5 61.5q0 38 35.5 73.5t35.5 42.5q0 28 -44.5 45.5t-92.5 17.5 q-71 0 -118.5 -36.5t-47.5 -111.5q0 -61 51 -121q30 -36 110 -101l161 -132q84 -68 129 -127q81 -106 81 -206q0 -120 -73 -191t-196 -60q97 -87 133 -139q56 -79 56 -168q0 -109 -83 -181.5t-214 -72.5q-113 0 -197 58.5t-84 142.5q0 46 27 82t83 36q43 0 70.5 -28.5 t27.5 -67.5q0 -24 -8.5 -38.5t-24.5 -28.5l-21 -19q-7 -6 -11 -12t-4 -13q0 -32 50.5 -51.5t97.5 -19.5q50 0 94 22q80 39 80 136q0 71 -45 121.5t-177 150.5l-109 83q-73 56 -122 122q-75 102 -75 209zM249 650q0 -46 26 -92.5t112 -121.5q85 -76 133.5 -105t101.5 -29 q52 0 97.5 35.5t45.5 108.5q0 87 -141 215t-235 128q-58 0 -99 -40.5t-41 -98.5z" />
<glyph unicode="&#xa8;" horiz-adv-x="682" d="M-19 1173q0 42 29.5 72t71.5 30q43 0 72.5 -30t29.5 -72t-29.5 -72t-72.5 -30q-42 0 -71.5 30t-29.5 72zM286 938zM388 1173q0 42 30 72t72 30q43 0 72.5 -30t29.5 -72t-29.5 -72t-72.5 -30q-42 0 -72 30t-30 72z" />
<glyph unicode="&#xa9;" horiz-adv-x="1556" d="M66 680q0 292 206 498t498 206t498 -206t206 -498t-206 -498t-498 -206t-498 206t-206 498zM142 680q0 -260 184 -444t444 -184t444 184t184 444t-184 444t-444 184t-444 -184t-184 -444zM348 699q0 194 116 318.5t291 124.5q46 0 90 -11t84 -34l33 -19q11 -6 18.5 -9 t16.5 -3q22 0 30.5 14t17.5 55h42l8 -344h-48q-32 156 -106 230t-176 74q-105 0 -176 -97.5t-71 -304.5q0 -135 60.5 -254.5t210.5 -119.5q107 0 187 71q46 41 93 119l42 -24q-48 -87 -105 -138q-104 -94 -248 -94q-170 0 -290 125t-120 321z" />
<glyph unicode="&#xaa;" horiz-adv-x="565" d="M23 929q0 79 82 137q55 38 138 69l114 40q0 96 -20.5 138t-80.5 42q-55 0 -77 -15t-22 -47q0 -7 4 -21t4 -23q0 -27 -18 -42t-38 -15q-27 0 -43.5 16t-16.5 41q0 48 59 91.5t161 43.5q47 0 87 -11.5t67 -37.5q30 -33 36.5 -75.5t6.5 -109.5v-151q0 -87 9 -108.5t33 -21.5 q16 0 28 6t28 18v-31q-22 -27 -56.5 -45.5t-66.5 -18.5q-31 0 -54 25.5t-30 67.5q-50 -42 -82 -60q-58 -33 -115 -33q-53 0 -95 36t-42 95zM139 969q0 -45 26.5 -71t67.5 -26q47 0 85.5 24t38.5 54v194q-69 -19 -126 -52q-92 -54 -92 -123z" />
<glyph unicode="&#xab;" d="M87 459l45 45q12 10 57 50q65 57 113 101q89 80 149 142q34 34 48.5 47.5t21.5 13.5q9 0 15 -6t6 -16q0 -28 -69 -123q-45 -60 -196 -249q86 -108 174.5 -227t88.5 -141q0 -11 -6 -17t-15 -6q-6 0 -11.5 4t-12.5 12q-10 10 -38.5 37.5t-32.5 31.5l-223 204l-95 81l-12 9z M478 459q38 38 102 95q72 63 118 104q85 78 144 139q34 34 48.5 47.5t21.5 13.5q9 0 15 -6t6 -16q0 -28 -68 -121q-44 -60 -197 -251q86 -108 174.5 -227t88.5 -141q0 -11 -6 -17t-15 -6q-6 0 -11.5 4t-12.5 12q-10 10 -38.5 37.5t-32.5 31.5l-223 204l-95 81l-12 9z" />
<glyph unicode="&#xac;" horiz-adv-x="1155" d="M61 654v140h1034v-553h-143v413h-891z" />
<glyph unicode="&#xad;" horiz-adv-x="682" d="M80 398v128h503v-128h-503z" />
<glyph unicode="&#xae;" horiz-adv-x="1556" d="M66 680q0 292 206 498t498 206t498 -206t206 -498t-206 -498t-498 -206t-498 206t-206 498zM142 680q0 -260 184 -444t444 -184t444 184t184 444t-184 444t-444 184t-444 -184t-184 -444zM372 274v48q82 0 110.5 10.5t28.5 58.5v597q0 43 -29.5 56t-109.5 13v47h403 q153 0 248 -56t95 -155q0 -82 -76 -136.5t-203 -67.5v-7q150 -48 192.5 -203.5t71.5 -155.5q37 0 53 40q10 27 19 108h50q-7 -90 -30 -133q-42 -78 -144 -78q-97 0 -130 63q-21 40 -28 158q-8 122 -55 157t-189 32v-279q0 -48 39 -61q25 -9 101 -8v-48h-417zM649 718 q162 0 215 22q86 35 86 155q0 77 -45.5 119.5t-144.5 42.5q-51 0 -81 -13.5t-30 -55.5v-270z" />
<glyph unicode="&#xaf;" horiz-adv-x="682" d="M-34 1121v109h640v-109h-640z" />
<glyph unicode="&#xb0;" horiz-adv-x="819" d="M87 1083q0 121 85.5 206t206.5 85t206 -85t85 -206t-85 -206.5t-206 -85.5t-206.5 85.5t-85.5 206.5zM187 1083q0 -79 56.5 -135.5t135.5 -56.5q80 0 136 56.5t56 135.5q0 80 -56 136t-136 56q-79 0 -135.5 -56t-56.5 -136z" />
<glyph unicode="&#xb1;" horiz-adv-x="1124" d="M47 0v135h1033v-135h-1033zM47 557v132h448v346h140v-346h445v-132h-445v-339h-140v339h-448z" />
<glyph unicode="&#xb2;" horiz-adv-x="614" d="M7 1123q23 117 100.5 184t180.5 67q104 0 174.5 -66t70.5 -159q0 -96 -53 -182.5t-210 -225.5l-121 -118q30 0 93 -1t93 -1q136 0 166 10.5t70 74.5l23 -10l-66 -168h-519v21q258 249 334 344.5t76 199.5q0 83 -56.5 133t-122.5 50q-82 0 -133 -54q-31 -32 -65 -108z" />
<glyph unicode="&#xb3;" horiz-adv-x="614" d="M22 591q0 20 13.5 32.5t34.5 12.5q27 0 94 -31.5t110 -31.5q84 0 126.5 60t42.5 119q0 123 -108 169q-56 24 -139 24h-28v24q129 25 184 96q35 44 35 96q0 86 -69 119q-35 17 -81 17q-74 0 -128 -51q-29 -27 -57 -80l-26 4q15 73 82 138.5t178 65.5q105 0 156 -53 t51 -115q0 -45 -28 -90.5t-91 -82.5q77 -27 120.5 -84t43.5 -141q0 -120 -93.5 -205.5t-272.5 -85.5q-66 0 -108 22t-42 52z" />
<glyph unicode="&#xb4;" horiz-adv-x="682" d="M132 1038l301 303q16 16 40 33t51 17q26 0 47.5 -18.5t21.5 -48.5q0 -29 -16 -48t-47 -39l-315 -199h-83zM277 938z" />
<glyph unicode="&#xb5;" horiz-adv-x="1180" d="M-157 -422l7 33q73 1 102 40.5t65 186.5q14 59 26 111q22 97 51 212l140 561q2 10 3.5 18.5t1.5 17.5q0 43 -25.5 52.5t-95.5 9.5v28l147 29l159 30q5 1 9 -4t3 -10l-3 -14l-185 -715q-2 -9 -3 -14.5t-1 -16.5q0 -20 11 -31t33 -11q60 0 147.5 103.5t159.5 219.5 q62 101 114 225q32 77 92 245h151l-189 -709q-5 -20 -9 -37t-4 -28q0 -17 8.5 -24.5t18.5 -7.5q15 0 31 11.5t40 35.5q11 11 40 47q18 22 55 67l28 -19q-46 -76 -96 -131q-99 -111 -184 -111q-44 0 -72 24t-28 75q0 37 15 104t52 198l24 85l-9 2q-70 -123 -147 -240 q-166 -244 -264 -244q-19 0 -33.5 5t-27.5 17l-107 -426h-251z" />
<glyph unicode="&#xb6;" horiz-adv-x="928" d="M-43 967q0 96 50.5 189.5t154.5 143.5q73 34 154 44.5t248 10.5h320v-38q-58 -3 -83 -26q-42 -39 -55 -154q-4 -29 -8 -117t-4 -158v-557q0 -238 -62 -368q-114 -236 -435 -236q-99 0 -155.5 34t-56.5 91q0 41 27.5 63.5t63.5 22.5t64 -24t28 -64q0 -18 -5.5 -31.5 t-15.5 -27.5q111 -3 155 115q24 67 34 231q4 64 4.5 122.5t0.5 341.5q-193 0 -308.5 114t-115.5 278zM296 -242l2 -12q208 41 272 223q39 112 39 400v382q0 129 2 205t5 134q5 81 21 139.5t50 87.5h-164q-6 0 -30.5 -29.5t-35.5 -72.5q-6 -20 -10 -60t-4 -94 q0 -58 -1.5 -87.5t-1.5 -87.5v-517q0 -321 -22 -436t-122 -175z" />
<glyph unicode="&#xb7;" horiz-adv-x="512" d="M106 679q0 48 34 82.5t80 34.5q52 0 87.5 -34.5t35.5 -82.5q0 -51 -35.5 -84.5t-84.5 -33.5q-51 0 -84 35.5t-33 82.5z" />
<glyph unicode="&#xb8;" horiz-adv-x="682" d="M52 -411l28 64l31 -9q12 -4 39.5 -9t55.5 -5q44 0 70 11q49 19 49 74q0 40 -25 59.5t-64 19.5q-30 0 -44.5 -2.5t-33.5 -7.5l-14 12l85 204h72l-53 -136q19 4 32.5 6t29.5 2q76 0 122 -40t46 -103q0 -73 -63 -123t-195 -50q-25 0 -58 5q-58 8 -110 28z" />
<glyph unicode="&#xb9;" horiz-adv-x="614" d="M135 1244v17l26 11l213 102q2 1 4 1t3 -1q2 -2 2 -4v-8v-715q0 -56 29 -70.5t97 -22.5v-16h-365v16q78 8 102 22.5t24 70.5v564q0 29 -7.5 44t-35.5 15q-16 0 -27.5 -3t-64.5 -23z" />
<glyph unicode="&#xba;" horiz-adv-x="635" d="M33 1096q0 117 88.5 203t206.5 86q121 0 208 -78.5t87 -210.5q0 -135 -87 -216.5t-200 -81.5q-126 0 -214.5 85.5t-88.5 212.5zM154 1137q0 -114 55.5 -206t135.5 -92q67 0 112.5 53.5t45.5 162.5q0 112 -51.5 200.5t-139.5 88.5q-79 0 -118.5 -65.5t-39.5 -141.5z" />
<glyph unicode="&#xbb;" d="M90 836q0 10 6 16t15 6q6 0 23 -15.5t47 -45.5q80 -83 222 -208t142 -130l-7 -7l-12 -9l-95 -81l-223 -204q-14 -12 -44.5 -43t-38.5 -37l-12 -5q-9 0 -15 6t-6 17q0 20 89 142t174 226q-131 161 -183 232q-82 110 -82 140zM481 836q0 10 6.5 16t14.5 6q7 0 21.5 -13.5 t48.5 -47.5q89 -92 226.5 -212t137.5 -126l-7 -7l-12 -9l-95 -81l-223 -204q-14 -12 -44.5 -43t-38.5 -37l-12 -5q-9 0 -15 6t-6 17q0 24 97.5 154t165.5 214q-153 191 -197 251q-68 93 -68 121z" />
<glyph unicode="&#xbc;" horiz-adv-x="1536" d="M109 1234v17l239 114q2 1 4 1t3 -1q2 -3 2 -5v-7v-716q0 -51 22 -69.5t104 -22.5v-17h-365v17q71 4 98.5 22.5t27.5 69.5v564q0 28 -7 44t-34 16q-16 0 -37.5 -6.5t-56.5 -20.5zM255 -15l930 1394h94l-924 -1394h-100zM751 194v80l415 550h61v-550h138v-80h-138v-204 h-102v204h-374zM805 274h318v425z" />
<glyph unicode="&#xbd;" horiz-adv-x="1536" d="M109 1234v17l239 114q2 1 4 1t3 -1q2 -3 2 -5v-7v-716q0 -51 22 -69.5t104 -22.5v-17h-365v17q71 4 98.5 22.5t27.5 69.5v564q0 28 -7 44t-34 16q-16 0 -37.5 -6.5t-56.5 -20.5zM227 -15l863 1394h95l-858 -1394h-100zM808 585q32 122 100 186.5t181 64.5 q100 0 172.5 -59t72.5 -161q0 -96 -56.5 -186.5t-206.5 -226.5l-121 -118q30 0 93.5 -1t93.5 -1q136 0 165 10.5t70 74.5l24 -10l-67 -168h-519v21q258 249 334 344.5t76 199.5q0 85 -57 134t-120 49q-82 0 -124 -42t-76 -121z" />
<glyph unicode="&#xbe;" horiz-adv-x="1536" d="M53 582q0 22 15.5 33t34.5 11q24 0 92 -31t109 -31q93 0 131.5 62.5t38.5 116.5q0 113 -95 161q-62 32 -152 32h-28v23q89 20 154 65t65 128q0 80 -62 114q-39 22 -91 22q-40 0 -76 -18q-63 -31 -107 -114l-26 5q26 92 96 148t165 56q101 0 153.5 -51.5t52.5 -114.5 q0 -66 -47 -119q-26 -29 -71 -57q70 -22 116.5 -78t46.5 -142q0 -138 -101 -216.5t-260 -78.5q-77 0 -115.5 23t-38.5 51zM270 -15l929 1394h95l-925 -1394h-99zM765 194v80l415 550h62v-550h137v-80h-137v-204h-102v204h-375zM820 274h317v425z" />
<glyph unicode="&#xbf;" horiz-adv-x="909" d="M43 -136q0 133 156 330q168 214 194 396h36q0 -37 -12.5 -109t-25.5 -114q-8 -24 -44.5 -114t-36.5 -85q-32 -76 -48 -124q-30 -94 -30 -165q0 -111 56 -193t171 -82q80 0 136 42.5t56 81.5q0 25 -40.5 71.5t-40.5 82.5q0 34 23 59.5t59 25.5q49 0 77.5 -39.5t28.5 -92.5 q0 -104 -88 -198t-276 -94q-124 0 -237.5 85t-113.5 236zM298 836q0 46 33 77.5t79 31.5t78.5 -32t32.5 -77t-32.5 -77t-77.5 -32q-44 0 -78.5 31.5t-34.5 77.5z" />
<glyph unicode="&#xc0;" horiz-adv-x="1479" d="M30 0v37q79 9 118.5 60t135.5 277l427 1005h40l510 -1161q51 -116 81.5 -143.5t102.5 -37.5v-37h-521v37q90 8 116 19.5t26 56.5q0 15 -10 53t-28 80l-85 197h-536q-80 -201 -95.5 -245.5t-15.5 -70.5q0 -52 42 -72q26 -12 98 -18v-37h-406zM433 1765q0 29 21 47.5 t48 18.5q26 0 48 -14.5t42 -34.5l301 -303h-83l-315 199q-33 21 -47.5 41t-14.5 46zM443 526h471l-237 564zM731 1379z" />
<glyph unicode="&#xc1;" horiz-adv-x="1479" d="M30 0v37q79 9 118.5 60t135.5 277l427 1005h40l510 -1161q51 -116 81.5 -143.5t102.5 -37.5v-37h-521v37q90 8 116 19.5t26 56.5q0 15 -10 53t-28 80l-85 197h-536q-80 -201 -95.5 -245.5t-15.5 -70.5q0 -52 42 -72q26 -12 98 -18v-37h-406zM443 526h471l-237 564z M586 1479l301 303q16 16 40 33t51 17q26 0 47.5 -18.5t21.5 -48.5q0 -29 -16 -48t-47 -39l-315 -199h-83zM731 1379z" />
<glyph unicode="&#xc2;" horiz-adv-x="1479" d="M30 0v37q79 9 118.5 60t135.5 277l427 1005h40l510 -1161q51 -116 81.5 -143.5t102.5 -37.5v-37h-521v37q90 8 116 19.5t26 56.5q0 15 -10 53t-28 80l-85 197h-536q-80 -201 -95.5 -245.5t-15.5 -70.5q0 -52 42 -72q26 -12 98 -18v-37h-406zM411 1479l256 341h128 l256 -341h-71l-249 211l-249 -211h-71zM443 526h471l-237 564zM731 1379z" />
<glyph unicode="&#xc3;" horiz-adv-x="1479" d="M30 0v37q79 9 118.5 60t135.5 277l427 1005h40l510 -1161q51 -116 81.5 -143.5t102.5 -37.5v-37h-521v37q90 8 116 19.5t26 56.5q0 15 -10 53t-28 80l-85 197h-536q-80 -201 -95.5 -245.5t-15.5 -70.5q0 -52 42 -72q26 -12 98 -18v-37h-406zM392 1531q26 107 86 156.5 t131 49.5q33 0 65.5 -9.5t71.5 -28.5l49 -24q35 -17 56.5 -23.5t41.5 -6.5q51 0 84 38q22 24 34 64h59q-5 -54 -39 -112q-62 -104 -180 -104q-42 0 -78.5 12t-81.5 35l-47 24q-17 8 -38.5 14.5t-39.5 6.5q-51 0 -81 -34q-16 -19 -31 -58h-62zM443 526h471l-237 564z M731 1379z" />
<glyph unicode="&#xc4;" horiz-adv-x="1479" d="M30 0v37q79 9 118.5 60t135.5 277l427 1005h40l510 -1161q51 -116 81.5 -143.5t102.5 -37.5v-37h-521v37q90 8 116 19.5t26 56.5q0 15 -10 53t-28 80l-85 197h-536q-80 -201 -95.5 -245.5t-15.5 -70.5q0 -52 42 -72q26 -12 98 -18v-37h-406zM426 1614q0 42 29.5 72 t71.5 30q43 0 72.5 -30t29.5 -72t-29.5 -72t-72.5 -30q-42 0 -71.5 30t-29.5 72zM443 526h471l-237 564zM731 1379zM833 1614q0 42 30 72t72 30q43 0 72.5 -30t29.5 -72t-29.5 -72t-72.5 -30q-42 0 -72 30t-30 72z" />
<glyph unicode="&#xc5;" horiz-adv-x="1479" d="M30 0v37q79 9 118.5 60t135.5 277l427 1005h40l510 -1161q51 -116 81.5 -143.5t102.5 -37.5v-37h-521v37q90 8 116 19.5t26 56.5q0 15 -10 53t-28 80l-85 197h-536q-80 -201 -95.5 -245.5t-15.5 -70.5q0 -52 42 -72q26 -12 98 -18v-37h-406zM443 526h471l-237 564z M522 1626q0 86 61.5 147t147.5 61t147 -61t61 -147q0 -87 -61 -148t-147 -61q-87 0 -148 61t-61 148zM605 1626q0 -53 37 -89.5t89 -36.5t88.5 37t36.5 89t-36.5 88.5t-88.5 36.5t-89 -36.5t-37 -88.5zM731 1379z" />
<glyph unicode="&#xc6;" horiz-adv-x="1821" d="M9 0v37q65 11 97 36.5t83 125.5l85 166l418 824q6 12 11 28t5 28q0 38 -43 53t-139 17v40h1161v-291h-50q-13 128 -75.5 171.5t-175.5 43.5h-303q-36 0 -45.5 -17t-9.5 -42v-471h228q169 0 212 40t58 159h43v-479h-43q-14 109 -49 156q-34 48 -152 48h-297v-491 q0 -74 34.5 -88t198.5 -14q193 0 288.5 42.5t180.5 218.5h50l-93 -339l-1045 -2v37q121 16 151.5 42.5t30.5 140.5v313h-360q-123 -243 -155 -314.5t-32 -110.5q0 -33 31 -47t109 -19v-42h-408zM500 611h324v645z" />
<glyph unicode="&#xc7;" horiz-adv-x="1366" d="M51 664q0 299 189 502q199 213 518 213q111 0 228 -33t131 -33q29 0 55 16t36 50h43l19 -460h-47q-41 137 -107 221q-126 158 -339 158q-215 0 -351.5 -170t-136.5 -468q0 -274 143.5 -437.5t363.5 -163.5q159 0 293 76q77 43 169 130l38 -38q-68 -86 -169 -151 q-172 -110 -373 -110q-39 0 -70 2l-38 -104q19 4 32.5 6t29.5 2q76 0 122 -40t46 -103q0 -73 -63 -123t-195 -50q-25 0 -58 5q-58 8 -110 28l28 64l31 -9q12 -4 39.5 -9t55.5 -5q44 0 70 11q49 19 49 74q0 40 -25 59.5t-64 19.5q-30 0 -44.5 -2.5t-33.5 -7.5l-14 12l74 179 q-261 28 -413 212.5t-152 476.5z" />
<glyph unicode="&#xc8;" horiz-adv-x="1251" d="M23 0v37q113 12 146.5 40.5t33.5 144.5v911q0 109 -33 142.5t-147 41.5v38h1088l7 -294h-52q-26 136 -78 176t-232 40h-278q-45 0 -55.5 -14.5t-10.5 -54.5v-457h315q131 0 167 39t58 158h48v-474h-48q-23 119 -59 157.5t-166 38.5h-315v-507q0 -61 38.5 -72t230.5 -11 q208 0 307 45.5t178 220.5h57l-93 -346h-1107zM329 1741q0 29 21 47.5t48 18.5q26 0 48 -14.5t42 -34.5l301 -303h-83l-315 199q-33 21 -47.5 41t-14.5 46zM627 1355z" />
<glyph unicode="&#xc9;" horiz-adv-x="1251" d="M23 0v37q113 12 146.5 40.5t33.5 144.5v911q0 109 -33 142.5t-147 41.5v38h1088l7 -294h-52q-26 136 -78 176t-232 40h-278q-45 0 -55.5 -14.5t-10.5 -54.5v-457h315q131 0 167 39t58 158h48v-474h-48q-23 119 -59 157.5t-166 38.5h-315v-507q0 -61 38.5 -72t230.5 -11 q208 0 307 45.5t178 220.5h57l-93 -346h-1107zM482 1455l301 303q16 16 40 33t51 17q26 0 47.5 -18.5t21.5 -48.5q0 -29 -16 -48t-47 -39l-315 -199h-83zM627 1355z" />
<glyph unicode="&#xca;" horiz-adv-x="1251" d="M23 0v37q113 12 146.5 40.5t33.5 144.5v911q0 109 -33 142.5t-147 41.5v38h1088l7 -294h-52q-26 136 -78 176t-232 40h-278q-45 0 -55.5 -14.5t-10.5 -54.5v-457h315q131 0 167 39t58 158h48v-474h-48q-23 119 -59 157.5t-166 38.5h-315v-507q0 -61 38.5 -72t230.5 -11 q208 0 307 45.5t178 220.5h57l-93 -346h-1107zM307 1455l256 341h128l256 -341h-71l-249 211l-249 -211h-71zM627 1355z" />
<glyph unicode="&#xcb;" horiz-adv-x="1251" d="M23 0v37q113 12 146.5 40.5t33.5 144.5v911q0 109 -33 142.5t-147 41.5v38h1088l7 -294h-52q-26 136 -78 176t-232 40h-278q-45 0 -55.5 -14.5t-10.5 -54.5v-457h315q131 0 167 39t58 158h48v-474h-48q-23 119 -59 157.5t-166 38.5h-315v-507q0 -61 38.5 -72t230.5 -11 q208 0 307 45.5t178 220.5h57l-93 -346h-1107zM322 1590q0 42 29.5 72t71.5 30q43 0 72.5 -30t29.5 -72t-29.5 -72t-72.5 -30q-42 0 -71.5 30t-29.5 72zM627 1355zM729 1590q0 42 30 72t72 30q43 0 72.5 -30t29.5 -72t-29.5 -72t-72.5 -30q-42 0 -72 30t-30 72z" />
<glyph unicode="&#xcc;" horiz-adv-x="682" d="M33 0v37q125 9 162 37.5t37 147.5v911q0 113 -37 145.5t-162 38.5v38h606v-38q-125 -6 -162 -38.5t-37 -145.5v-911q0 -119 37 -147.5t162 -37.5v-37h-606zM38 1741q0 29 21 47.5t48 18.5q26 0 48 -14.5t42 -34.5l301 -303h-83l-315 199q-33 21 -47.5 41t-14.5 46z M336 1355z" />
<glyph unicode="&#xcd;" horiz-adv-x="682" d="M33 0v37q125 9 162 37.5t37 147.5v911q0 113 -37 145.5t-162 38.5v38h606v-38q-125 -6 -162 -38.5t-37 -145.5v-911q0 -119 37 -147.5t162 -37.5v-37h-606zM191 1455l301 303q16 16 40 33t51 17q26 0 47.5 -18.5t21.5 -48.5q0 -29 -16 -48t-47 -39l-315 -199h-83z M336 1355z" />
<glyph unicode="&#xce;" horiz-adv-x="682" d="M16 1455l256 341h128l256 -341h-71l-249 211l-249 -211h-71zM33 0v37q125 9 162 37.5t37 147.5v911q0 113 -37 145.5t-162 38.5v38h606v-38q-125 -6 -162 -38.5t-37 -145.5v-911q0 -119 37 -147.5t162 -37.5v-37h-606zM336 1355z" />
<glyph unicode="&#xcf;" horiz-adv-x="682" d="M31 1590q0 42 29.5 72t71.5 30q43 0 72.5 -30t29.5 -72t-29.5 -72t-72.5 -30q-42 0 -71.5 30t-29.5 72zM33 0v37q125 9 162 37.5t37 147.5v911q0 113 -37 145.5t-162 38.5v38h606v-38q-125 -6 -162 -38.5t-37 -145.5v-911q0 -119 37 -147.5t162 -37.5v-37h-606zM336 1355 zM438 1590q0 42 30 72t72 30q43 0 72.5 -30t29.5 -72t-29.5 -72t-72.5 -30q-42 0 -72 30t-30 72z" />
<glyph unicode="&#xd0;" horiz-adv-x="1479" d="M33 0v37q112 12 146 40.5t34 144.5v422h-180v90h180v399q0 112 -33 144t-147 40v38h552q357 0 568 -147q250 -175 250 -535q0 -133 -53.5 -275t-195.5 -249q-80 -60 -166 -91q-157 -58 -386 -58h-569zM421 158q0 -50 24.5 -66t101.5 -16q240 0 395 95q238 146 238 499 q0 315 -196 474q-168 136 -445 136q-69 0 -93.5 -15t-24.5 -66v-465h342v-90h-342v-486z" />
<glyph unicode="&#xd1;" horiz-adv-x="1479" d="M23 0v37q127 13 163 57.5t36 206.5v903l-28 33q-45 53 -76.5 65.5t-94.5 14.5v38h351l789 -986v685q0 169 -50 220q-33 33 -146 43v38h481v-38q-117 -12 -156 -57t-39 -206v-1078h-35l-906 1123v-798q0 -168 49 -219q32 -33 143 -45v-37h-481zM402 1507q26 107 86 156.5 t131 49.5q33 0 65.5 -9.5t71.5 -28.5l49 -24q35 -17 56.5 -23.5t41.5 -6.5q51 0 84 38q22 24 34 64h59q-5 -54 -39 -112q-62 -104 -180 -104q-42 0 -78.5 12t-81.5 35l-47 24q-17 8 -38.5 14.5t-39.5 6.5q-51 0 -81 -34q-16 -19 -31 -58h-62zM741 1355z" />
<glyph unicode="&#xd2;" horiz-adv-x="1479" d="M61 677q0 328 206 526q189 181 465 181q277 0 466 -182q205 -197 205 -525q0 -333 -212 -530q-190 -176 -459 -176q-288 0 -478 195q-193 199 -193 511zM293 677q0 -323 127 -477.5t312 -154.5q181 0 309.5 150.5t128.5 481.5q0 335 -130 484t-308 149 q-184 0 -311.5 -154.5t-127.5 -478.5zM434 1770q0 29 21 47.5t48 18.5q26 0 48 -14.5t42 -34.5l301 -303h-83l-315 199q-33 21 -47.5 41t-14.5 46zM732 1384z" />
<glyph unicode="&#xd3;" horiz-adv-x="1479" d="M61 677q0 328 206 526q189 181 465 181q277 0 466 -182q205 -197 205 -525q0 -333 -212 -530q-190 -176 -459 -176q-288 0 -478 195q-193 199 -193 511zM293 677q0 -323 127 -477.5t312 -154.5q181 0 309.5 150.5t128.5 481.5q0 335 -130 484t-308 149 q-184 0 -311.5 -154.5t-127.5 -478.5zM587 1484l301 303q16 16 40 33t51 17q26 0 47.5 -18.5t21.5 -48.5q0 -29 -16 -48t-47 -39l-315 -199h-83zM732 1384z" />
<glyph unicode="&#xd4;" horiz-adv-x="1479" d="M61 677q0 328 206 526q189 181 465 181q277 0 466 -182q205 -197 205 -525q0 -333 -212 -530q-190 -176 -459 -176q-288 0 -478 195q-193 199 -193 511zM293 677q0 -323 127 -477.5t312 -154.5q181 0 309.5 150.5t128.5 481.5q0 335 -130 484t-308 149 q-184 0 -311.5 -154.5t-127.5 -478.5zM412 1484l256 341h128l256 -341h-71l-249 211l-249 -211h-71zM732 1384z" />
<glyph unicode="&#xd5;" horiz-adv-x="1479" d="M61 677q0 328 206 526q189 181 465 181q277 0 466 -182q205 -197 205 -525q0 -333 -212 -530q-190 -176 -459 -176q-288 0 -478 195q-193 199 -193 511zM293 677q0 -323 127 -477.5t312 -154.5q181 0 309.5 150.5t128.5 481.5q0 335 -130 484t-308 149 q-184 0 -311.5 -154.5t-127.5 -478.5zM393 1536q26 107 86 156.5t131 49.5q33 0 65.5 -9.5t71.5 -28.5l49 -24q35 -17 56.5 -23.5t41.5 -6.5q51 0 84 38q22 24 34 64h59q-5 -54 -39 -112q-62 -104 -180 -104q-42 0 -78.5 12t-81.5 35l-47 24q-17 8 -38.5 14.5t-39.5 6.5 q-51 0 -81 -34q-16 -19 -31 -58h-62zM732 1384z" />
<glyph unicode="&#xd6;" horiz-adv-x="1479" d="M61 677q0 328 206 526q189 181 465 181q277 0 466 -182q205 -197 205 -525q0 -333 -212 -530q-190 -176 -459 -176q-288 0 -478 195q-193 199 -193 511zM293 677q0 -323 127 -477.5t312 -154.5q181 0 309.5 150.5t128.5 481.5q0 335 -130 484t-308 149 q-184 0 -311.5 -154.5t-127.5 -478.5zM427 1619q0 42 29.5 72t71.5 30q43 0 72.5 -30t29.5 -72t-29.5 -72t-72.5 -30q-42 0 -71.5 30t-29.5 72zM732 1384zM834 1619q0 42 30 72t72 30q43 0 72.5 -30t29.5 -72t-29.5 -72t-72.5 -30q-42 0 -72 30t-30 72z" />
<glyph unicode="&#xd7;" horiz-adv-x="1155" d="M85 125l391 394l-391 391l99 99l391 -391l394 391l100 -99l-394 -391l394 -394l-100 -99l-394 391l-391 -391z" />
<glyph unicode="&#xd8;" horiz-adv-x="1479" d="M61 677q0 328 206 526q189 181 465 181q111 0 201.5 -29.5t158.5 -72.5l150 220h99l-182 -268q89 -71 162 -199q82 -149 82 -358q0 -328 -206 -524q-191 -182 -474 -182q-60 0 -123 12q-118 23 -228 85l-164 -234h-99l194 282q-110 110 -158 199q-84 153 -84 362z M293 677q0 -144 25 -244q26 -110 70 -187l635 936q-65 58 -112 83q-84 45 -186 45q-188 0 -310 -165.5t-122 -467.5zM440 173q45 -48 115 -85q82 -43 186 -43q178 0 303.5 158.5t125.5 469.5q0 151 -22.5 247t-74.5 191z" />
<glyph unicode="&#xd9;" horiz-adv-x="1479" d="M28 1317v38h581v-38q-118 -8 -153 -39.5t-35 -144.5v-655q0 -161 44 -251q82 -164 311 -164q251 0 337 168q48 94 48 290v533q0 167 -40 209.5t-152 53.5v38h474v-38q-119 -13 -155.5 -57.5t-36.5 -205.5v-533q0 -212 -65 -331q-120 -219 -456 -219q-332 0 -452 216 q-65 116 -65 306v640q0 112 -34.5 143.5t-150.5 40.5zM443 1741q0 29 21 47.5t48 18.5q26 0 48 -14.5t42 -34.5l301 -303h-83l-315 199q-33 21 -47.5 41t-14.5 46zM741 1355z" />
<glyph unicode="&#xda;" horiz-adv-x="1479" d="M28 1317v38h581v-38q-118 -8 -153 -39.5t-35 -144.5v-655q0 -161 44 -251q82 -164 311 -164q251 0 337 168q48 94 48 290v533q0 167 -40 209.5t-152 53.5v38h474v-38q-119 -13 -155.5 -57.5t-36.5 -205.5v-533q0 -212 -65 -331q-120 -219 -456 -219q-332 0 -452 216 q-65 116 -65 306v640q0 112 -34.5 143.5t-150.5 40.5zM596 1455l301 303q16 16 40 33t51 17q26 0 47.5 -18.5t21.5 -48.5q0 -29 -16 -48t-47 -39l-315 -199h-83zM741 1355z" />
<glyph unicode="&#xdb;" horiz-adv-x="1479" d="M28 1317v38h581v-38q-118 -8 -153 -39.5t-35 -144.5v-655q0 -161 44 -251q82 -164 311 -164q251 0 337 168q48 94 48 290v533q0 167 -40 209.5t-152 53.5v38h474v-38q-119 -13 -155.5 -57.5t-36.5 -205.5v-533q0 -212 -65 -331q-120 -219 -456 -219q-332 0 -452 216 q-65 116 -65 306v640q0 112 -34.5 143.5t-150.5 40.5zM421 1455l256 341h128l256 -341h-71l-249 211l-249 -211h-71zM741 1355z" />
<glyph unicode="&#xdc;" horiz-adv-x="1479" d="M28 1317v38h581v-38q-118 -8 -153 -39.5t-35 -144.5v-655q0 -161 44 -251q82 -164 311 -164q251 0 337 168q48 94 48 290v533q0 167 -40 209.5t-152 53.5v38h474v-38q-119 -13 -155.5 -57.5t-36.5 -205.5v-533q0 -212 -65 -331q-120 -219 -456 -219q-332 0 -452 216 q-65 116 -65 306v640q0 112 -34.5 143.5t-150.5 40.5zM436 1590q0 42 29.5 72t71.5 30q43 0 72.5 -30t29.5 -72t-29.5 -72t-72.5 -30q-42 0 -71.5 30t-29.5 72zM741 1355zM843 1590q0 42 30 72t72 30q43 0 72.5 -30t29.5 -72t-29.5 -72t-72.5 -30q-42 0 -72 30t-30 72z" />
<glyph unicode="&#xdd;" horiz-adv-x="1479" d="M45 1317v38h573v-38q-72 2 -108 -11t-36 -56q0 -13 6 -32.5t27 -51.5l303 -455l294 462q18 29 23.5 48t5.5 28q0 44 -47 58q-28 9 -96 10v38h448v-38q-62 -3 -111 -37q-76 -53 -171 -197l-303 -462v-399q0 -119 38.5 -148.5t172.5 -36.5v-37h-626v37q139 8 172.5 41.5 t33.5 167.5v356l-268 393q-139 203 -195 260.5t-136 61.5zM596 1455l301 303q16 16 40 33t51 17q26 0 47.5 -18.5t21.5 -48.5q0 -29 -16 -48t-47 -39l-315 -199h-83zM741 1355z" />
<glyph unicode="&#xde;" horiz-adv-x="1139" d="M33 0v37q110 10 142.5 45.5t32.5 163.5v887q0 107 -32.5 141t-142.5 43v38h564v-38q-111 -4 -149 -33t-38 -118q0 -12 0.5 -18.5t1.5 -33.5h159q162 0 304 -45q231 -78 231 -316q0 -100 -53.5 -200t-175.5 -151q-87 -36 -212 -47q-77 -7 -253 -7v-84q0 -141 31.5 -179 t162.5 -48v-37h-573zM412 431l72 -3q152 0 241 43q164 79 164 300q0 169 -144 234q-82 37 -209 37q-89 0 -106.5 -18t-17.5 -91v-502z" />
<glyph unicode="&#xdf;" d="M23 0v30q70 6 93 25q35 29 35 118v758q0 180 45 282q82 188 311 188q153 0 254 -79.5t101 -224.5q0 -152 -125 -247q-68 -52 -152 -75q162 -41 240 -101q134 -101 134 -296q0 -166 -107 -283t-257 -117q-84 0 -143 40t-59 114q0 41 25 69t65 28q38 0 61.5 -22.5 t26.5 -60.5l4 -45q2 -28 14 -44q11 -17 48 -17q82 0 112 117q16 63 16 176q0 200 -73.5 298t-219.5 101q-20 1 -31.5 8.5t-11.5 25.5q0 17 11 22.5t35 8.5q83 10 128 44q83 63 83 216q0 89 -27 161q-48 128 -164 128q-93 0 -133 -70t-40 -186v-1090h-299z" />
<glyph unicode="&#xe0;" horiz-adv-x="909" d="M75 199q0 145 145 242q92 60 367 163v85q0 102 -20 142q-34 67 -141 67q-51 0 -97 -26q-46 -27 -46 -74q0 -12 5 -40.5t5 -36.5q0 -56 -37 -78q-21 -13 -50 -13q-45 0 -69 29.5t-24 65.5q0 70 86.5 146.5t253.5 76.5q194 0 263 -126q37 -69 37 -201v-401q0 -58 8 -80 q13 -39 54 -39q23 0 38 7t52 34v-52q-32 -39 -69 -64q-56 -38 -114 -38q-68 0 -98.5 44t-33.5 105q-76 -66 -130 -98q-91 -54 -173 -54q-86 0 -149 60.5t-63 153.5zM158 1334q0 29 21 47.5t48 18.5q26 0 48 -14.5t42 -34.5l301 -303h-83l-315 199q-33 21 -47.5 41t-14.5 46z M253 268q0 -91 60 -134q39 -28 87 -28q66 0 126.5 37t60.5 94v317q-115 -38 -190 -84q-144 -89 -144 -202zM456 948z" />
<glyph unicode="&#xe1;" horiz-adv-x="909" d="M75 199q0 145 145 242q92 60 367 163v85q0 102 -20 142q-34 67 -141 67q-51 0 -97 -26q-46 -27 -46 -74q0 -12 5 -40.5t5 -36.5q0 -56 -37 -78q-21 -13 -50 -13q-45 0 -69 29.5t-24 65.5q0 70 86.5 146.5t253.5 76.5q194 0 263 -126q37 -69 37 -201v-401q0 -58 8 -80 q13 -39 54 -39q23 0 38 7t52 34v-52q-32 -39 -69 -64q-56 -38 -114 -38q-68 0 -98.5 44t-33.5 105q-76 -66 -130 -98q-91 -54 -173 -54q-86 0 -149 60.5t-63 153.5zM253 268q0 -91 60 -134q39 -28 87 -28q66 0 126.5 37t60.5 94v317q-115 -38 -190 -84q-144 -89 -144 -202z M311 1048l301 303q16 16 40 33t51 17q26 0 47.5 -18.5t21.5 -48.5q0 -29 -16 -48t-47 -39l-315 -199h-83zM456 948z" />
<glyph unicode="&#xe2;" horiz-adv-x="909" d="M75 199q0 145 145 242q92 60 367 163v85q0 102 -20 142q-34 67 -141 67q-51 0 -97 -26q-46 -27 -46 -74q0 -12 5 -40.5t5 -36.5q0 -56 -37 -78q-21 -13 -50 -13q-45 0 -69 29.5t-24 65.5q0 70 86.5 146.5t253.5 76.5q194 0 263 -126q37 -69 37 -201v-401q0 -58 8 -80 q13 -39 54 -39q23 0 38 7t52 34v-52q-32 -39 -69 -64q-56 -38 -114 -38q-68 0 -98.5 44t-33.5 105q-76 -66 -130 -98q-91 -54 -173 -54q-86 0 -149 60.5t-63 153.5zM136 1048l256 341h128l256 -341h-71l-249 211l-249 -211h-71zM253 268q0 -91 60 -134q39 -28 87 -28 q66 0 126.5 37t60.5 94v317q-115 -38 -190 -84q-144 -89 -144 -202zM456 948z" />
<glyph unicode="&#xe3;" horiz-adv-x="909" d="M75 199q0 145 145 242q92 60 367 163v85q0 102 -20 142q-34 67 -141 67q-51 0 -97 -26q-46 -27 -46 -74q0 -12 5 -40.5t5 -36.5q0 -56 -37 -78q-21 -13 -50 -13q-45 0 -69 29.5t-24 65.5q0 70 86.5 146.5t253.5 76.5q194 0 263 -126q37 -69 37 -201v-401q0 -58 8 -80 q13 -39 54 -39q23 0 38 7t52 34v-52q-32 -39 -69 -64q-56 -38 -114 -38q-68 0 -98.5 44t-33.5 105q-76 -66 -130 -98q-91 -54 -173 -54q-86 0 -149 60.5t-63 153.5zM117 1100q26 107 86 156.5t131 49.5q33 0 65.5 -9.5t71.5 -28.5l49 -24q35 -17 56.5 -23.5t41.5 -6.5 q51 0 84 38q22 24 34 64h59q-5 -54 -39 -112q-62 -104 -180 -104q-42 0 -78.5 12t-81.5 35l-47 24q-17 8 -38.5 14.5t-39.5 6.5q-51 0 -81 -34q-16 -19 -31 -58h-62zM253 268q0 -91 60 -134q39 -28 87 -28q66 0 126.5 37t60.5 94v317q-115 -38 -190 -84q-144 -89 -144 -202z M456 948z" />
<glyph unicode="&#xe4;" horiz-adv-x="909" d="M75 199q0 145 145 242q92 60 367 163v85q0 102 -20 142q-34 67 -141 67q-51 0 -97 -26q-46 -27 -46 -74q0 -12 5 -40.5t5 -36.5q0 -56 -37 -78q-21 -13 -50 -13q-45 0 -69 29.5t-24 65.5q0 70 86.5 146.5t253.5 76.5q194 0 263 -126q37 -69 37 -201v-401q0 -58 8 -80 q13 -39 54 -39q23 0 38 7t52 34v-52q-32 -39 -69 -64q-56 -38 -114 -38q-68 0 -98.5 44t-33.5 105q-76 -66 -130 -98q-91 -54 -173 -54q-86 0 -149 60.5t-63 153.5zM151 1183q0 42 29.5 72t71.5 30q43 0 72.5 -30t29.5 -72t-29.5 -72t-72.5 -30q-42 0 -71.5 30t-29.5 72z M253 268q0 -91 60 -134q39 -28 87 -28q66 0 126.5 37t60.5 94v317q-115 -38 -190 -84q-144 -89 -144 -202zM456 948zM558 1183q0 42 30 72t72 30q43 0 72.5 -30t29.5 -72t-29.5 -72t-72.5 -30q-42 0 -72 30t-30 72z" />
<glyph unicode="&#xe5;" horiz-adv-x="909" d="M75 199q0 145 145 242q92 60 367 163v85q0 102 -20 142q-34 67 -141 67q-51 0 -97 -26q-46 -27 -46 -74q0 -12 5 -40.5t5 -36.5q0 -56 -37 -78q-21 -13 -50 -13q-45 0 -69 29.5t-24 65.5q0 70 86.5 146.5t253.5 76.5q194 0 263 -126q37 -69 37 -201v-401q0 -58 8 -80 q13 -39 54 -39q23 0 38 7t52 34v-52q-32 -39 -69 -64q-56 -38 -114 -38q-68 0 -98.5 44t-33.5 105q-76 -66 -130 -98q-91 -54 -173 -54q-86 0 -149 60.5t-63 153.5zM247 1266q0 86 61.5 147t147.5 61t147 -61t61 -147q0 -87 -61 -148t-147 -61q-87 0 -148 61t-61 148z M253 268q0 -91 60 -134q39 -28 87 -28q66 0 126.5 37t60.5 94v317q-115 -38 -190 -84q-144 -89 -144 -202zM330 1266q0 -53 37 -89.5t89 -36.5t88.5 37t36.5 89t-36.5 88.5t-88.5 36.5t-89 -36.5t-37 -88.5zM456 1019z" />
<glyph unicode="&#xe6;" horiz-adv-x="1366" d="M77 207q0 133 133 222q86 57 349 156q3 57 4 77.5t1 40.5q0 94 -17 133q-30 67 -120 67q-41 0 -75 -16q-62 -29 -56 -98l2 -24q4 -53 -6 -81q-19 -52 -84 -52q-30 0 -59.5 24t-29.5 77q0 85 93.5 152.5t233.5 67.5q88 0 151 -30q37 -17 92 -63q61 46 116 69t138 23 q68 0 129.5 -27t105.5 -80q45 -55 64 -128q11 -45 19 -139h-536q3 -227 35 -312q54 -142 220 -142q74 0 144 44.5t115 110.5l31 45l24 -14q-55 -123 -119 -194q-119 -132 -287 -132q-78 0 -147 42t-116 111q-86 -73 -138 -102q-86 -50 -172 -50q-101 0 -169.5 63t-68.5 159z M255 264q0 -72 41 -124.5t111 -52.5q50 0 121 39.5t71 63.5q0 -8 -18.5 74.5t-19.5 156.5l-2 107q-165 -49 -234.5 -113.5t-69.5 -150.5zM727 639h339q0 96 -20 151q-37 103 -141 103q-106 0 -148 -93q-24 -53 -30 -161z" />
<glyph unicode="&#xe7;" horiz-adv-x="909" d="M47 438q0 207 131 356t331 149q125 0 215.5 -64.5t90.5 -141.5q0 -33 -23 -61.5t-71 -28.5q-35 0 -61.5 24t-38.5 70l-12 48q-13 53 -45 75q-33 21 -87 21q-114 0 -192.5 -99.5t-78.5 -264.5q0 -151 86.5 -271t233.5 -120q104 0 185 68q46 39 104 124l28 -17 q-57 -120 -120 -190q-121 -134 -259 -134l-46 -117q19 4 32.5 6t29.5 2q76 0 122 -40t46 -103q0 -73 -63 -123t-195 -50q-25 0 -58 5q-58 8 -110 28l28 64l31 -9q12 -4 39.5 -9t55.5 -5q44 0 70 11q49 19 49 74q0 40 -25 59.5t-64 19.5q-30 0 -44.5 -2.5t-33.5 -7.5l-14 12 l78 185q-147 19 -246 142.5t-99 314.5z" />
<glyph unicode="&#xe8;" horiz-adv-x="909" d="M40 445q0 201 119 347t310 146q141 0 247 -97.5t106 -276.5h-635q10 -232 105 -338t225 -106q105 0 177 55t133 156l35 -12q-41 -127 -153.5 -235t-275.5 -108q-188 0 -290.5 142t-102.5 327zM158 1324q0 29 21 47.5t48 18.5q26 0 48 -14.5t42 -34.5l301 -303h-83 l-315 199q-33 21 -47.5 41t-14.5 46zM191 628h422q-11 100 -38 149q-49 88 -164 88q-114 0 -174 -101q-32 -54 -46 -136zM456 938z" />
<glyph unicode="&#xe9;" horiz-adv-x="909" d="M40 445q0 201 119 347t310 146q141 0 247 -97.5t106 -276.5h-635q10 -232 105 -338t225 -106q105 0 177 55t133 156l35 -12q-41 -127 -153.5 -235t-275.5 -108q-188 0 -290.5 142t-102.5 327zM191 628h422q-11 100 -38 149q-49 88 -164 88q-114 0 -174 -101 q-32 -54 -46 -136zM311 1038l301 303q16 16 40 33t51 17q26 0 47.5 -18.5t21.5 -48.5q0 -29 -16 -48t-47 -39l-315 -199h-83zM456 938z" />
<glyph unicode="&#xea;" horiz-adv-x="909" d="M40 445q0 201 119 347t310 146q141 0 247 -97.5t106 -276.5h-635q10 -232 105 -338t225 -106q105 0 177 55t133 156l35 -12q-41 -127 -153.5 -235t-275.5 -108q-188 0 -290.5 142t-102.5 327zM136 1038l256 341h128l256 -341h-71l-249 211l-249 -211h-71zM191 628h422 q-11 100 -38 149q-49 88 -164 88q-114 0 -174 -101q-32 -54 -46 -136zM456 938z" />
<glyph unicode="&#xeb;" horiz-adv-x="909" d="M40 445q0 201 119 347t310 146q141 0 247 -97.5t106 -276.5h-635q10 -232 105 -338t225 -106q105 0 177 55t133 156l35 -12q-41 -127 -153.5 -235t-275.5 -108q-188 0 -290.5 142t-102.5 327zM151 1173q0 42 29.5 72t71.5 30q43 0 72.5 -30t29.5 -72t-29.5 -72t-72.5 -30 q-42 0 -71.5 30t-29.5 72zM191 628h422q-11 100 -38 149q-49 88 -164 88q-114 0 -174 -101q-32 -54 -46 -136zM456 938zM558 1173q0 42 30 72t72 30q43 0 72.5 -30t29.5 -72t-29.5 -72t-72.5 -30q-42 0 -72 30t-30 72z" />
<glyph unicode="&#xec;" horiz-adv-x="569" d="M-12 1324q0 29 21 47.5t48 18.5q26 0 48 -14.5t42 -34.5l301 -303h-83l-315 199q-33 21 -47.5 41t-14.5 46zM40 0v28q107 10 135 36.5t28 143.5v477q0 65 -9 90q-15 41 -63 41q-11 0 -21.5 -2t-60.5 -16v31l43 14q175 57 244 86q28 12 36 12q2 -7 2 -15v-718 q0 -114 27.5 -143t124.5 -37v-28h-486zM286 938z" />
<glyph unicode="&#xed;" horiz-adv-x="569" d="M40 0v28q107 10 135 36.5t28 143.5v477q0 65 -9 90q-15 41 -63 41q-11 0 -21.5 -2t-60.5 -16v31l43 14q175 57 244 86q28 12 36 12q2 -7 2 -15v-718q0 -114 27.5 -143t124.5 -37v-28h-486zM141 1038l301 303q16 16 40 33t51 17q26 0 47.5 -18.5t21.5 -48.5q0 -29 -16 -48 t-47 -39l-315 -199h-83zM286 938z" />
<glyph unicode="&#xee;" horiz-adv-x="569" d="M-34 1038l256 341h128l256 -341h-71l-249 211l-249 -211h-71zM40 0v28q107 10 135 36.5t28 143.5v477q0 65 -9 90q-15 41 -63 41q-11 0 -21.5 -2t-60.5 -16v31l43 14q175 57 244 86q28 12 36 12q2 -7 2 -15v-718q0 -114 27.5 -143t124.5 -37v-28h-486zM286 938z" />
<glyph unicode="&#xef;" horiz-adv-x="569" d="M-19 1173q0 42 29.5 72t71.5 30q43 0 72.5 -30t29.5 -72t-29.5 -72t-72.5 -30q-42 0 -71.5 30t-29.5 72zM40 0v28q107 10 135 36.5t28 143.5v477q0 65 -9 90q-15 41 -63 41q-11 0 -21.5 -2t-60.5 -16v31l43 14q175 57 244 86q28 12 36 12q2 -7 2 -15v-718 q0 -114 27.5 -143t124.5 -37v-28h-486zM286 938zM388 1173q0 42 30 72t72 30q43 0 72.5 -30t29.5 -72t-29.5 -72t-72.5 -30q-42 0 -72 30t-30 72z" />
<glyph unicode="&#xf0;" d="M54 459q0 210 124.5 344t298.5 134q87 0 164 -35q42 -19 91 -56q-25 106 -79 198.5t-111 130.5l-206 -114l-45 53l186 105q-60 32 -124 55t-159 41l19 62q61 -7 89 -12q43 -7 91 -19q55 -15 92.5 -30t92.5 -41l216 116l45 -50l-188 -107q158 -109 234 -294.5t76 -402.5 q0 -237 -124.5 -402.5t-324.5 -165.5q-181 0 -319.5 133.5t-138.5 356.5zM239 512q0 -178 80.5 -332t218.5 -154q117 0 176.5 101.5t59.5 251.5q0 224 -81 361.5t-213 137.5q-82 0 -139 -51q-102 -91 -102 -315z" />
<glyph unicode="&#xf1;" d="M33 813v35q41 12 194 62l94 31q7 0 8.5 -5t1.5 -14v-147q92 86 144 118q78 49 162 49q68 0 124 -39q108 -76 108 -271v-467q0 -72 29 -104t97 -33v-28h-427v28q73 10 102 40.5t29 132.5v427q0 86 -32 142.5t-118 56.5q-59 0 -120 -40q-34 -23 -88 -76v-560 q0 -72 32 -96.5t101 -26.5v-28h-437v28q71 9 99.5 35.5t28.5 118.5v507q0 64 -12 90q-19 38 -78 38q-9 0 -18.5 -1t-23.5 -3zM174 1094q26 107 86 156.5t131 49.5q33 0 65.5 -9.5t71.5 -28.5l49 -24q35 -17 56.5 -23.5t41.5 -6.5q51 0 84 38q22 24 34 64h59q-5 -54 -39 -112 q-62 -104 -180 -104q-42 0 -78.5 12t-81.5 35l-47 24q-17 8 -38.5 14.5t-39.5 6.5q-51 0 -81 -34q-16 -19 -31 -58h-62zM513 942z" />
<glyph unicode="&#xf2;" d="M52 464q0 199 126.5 336.5t325.5 137.5q198 0 328 -130t130 -346q0 -199 -126 -346t-326 -147q-192 0 -325 141t-133 354zM215 1324q0 29 21 47.5t48 18.5q26 0 48 -14.5t42 -34.5l301 -303h-83l-315 199q-33 21 -47.5 41t-14.5 46zM239 512q0 -178 80.5 -332t223.5 -154 q112 0 172.5 103t60.5 270q0 173 -77 326t-223 153q-79 0 -137 -52q-100 -91 -100 -314zM513 938z" />
<glyph unicode="&#xf3;" d="M52 464q0 199 126.5 336.5t325.5 137.5q198 0 328 -130t130 -346q0 -199 -126 -346t-326 -147q-192 0 -325 141t-133 354zM239 512q0 -178 80.5 -332t223.5 -154q112 0 172.5 103t60.5 270q0 173 -77 326t-223 153q-79 0 -137 -52q-100 -91 -100 -314zM368 1038l301 303 q16 16 40 33t51 17q26 0 47.5 -18.5t21.5 -48.5q0 -29 -16 -48t-47 -39l-315 -199h-83zM513 938z" />
<glyph unicode="&#xf4;" d="M52 464q0 199 126.5 336.5t325.5 137.5q198 0 328 -130t130 -346q0 -199 -126 -346t-326 -147q-192 0 -325 141t-133 354zM193 1038l256 341h128l256 -341h-71l-249 211l-249 -211h-71zM239 512q0 -178 80.5 -332t223.5 -154q112 0 172.5 103t60.5 270q0 173 -77 326 t-223 153q-79 0 -137 -52q-100 -91 -100 -314zM513 938z" />
<glyph unicode="&#xf5;" d="M52 464q0 199 126.5 336.5t325.5 137.5q198 0 328 -130t130 -346q0 -199 -126 -346t-326 -147q-192 0 -325 141t-133 354zM174 1090q26 107 86 156.5t131 49.5q33 0 65.5 -9.5t71.5 -28.5l49 -24q35 -17 56.5 -23.5t41.5 -6.5q51 0 84 38q22 24 34 64h59q-5 -54 -39 -112 q-62 -104 -180 -104q-42 0 -78.5 12t-81.5 35l-47 24q-17 8 -38.5 14.5t-39.5 6.5q-51 0 -81 -34q-16 -19 -31 -58h-62zM239 512q0 -178 80.5 -332t223.5 -154q112 0 172.5 103t60.5 270q0 173 -77 326t-223 153q-79 0 -137 -52q-100 -91 -100 -314zM513 938z" />
<glyph unicode="&#xf6;" d="M52 464q0 199 126.5 336.5t325.5 137.5q198 0 328 -130t130 -346q0 -199 -126 -346t-326 -147q-192 0 -325 141t-133 354zM208 1173q0 42 29.5 72t71.5 30q43 0 72.5 -30t29.5 -72t-29.5 -72t-72.5 -30q-42 0 -71.5 30t-29.5 72zM239 512q0 -178 80.5 -332t223.5 -154 q112 0 172.5 103t60.5 270q0 173 -77 326t-223 153q-79 0 -137 -52q-100 -91 -100 -314zM513 938zM615 1173q0 42 30 72t72 30q43 0 72.5 -30t29.5 -72t-29.5 -72t-72.5 -30q-42 0 -72 30t-30 72z" />
<glyph unicode="&#xf7;" horiz-adv-x="1124" d="M47 447v140h1033v-140h-1033zM452 149q0 45 32.5 78t79.5 33q46 0 78.5 -33t32.5 -78q0 -46 -32.5 -79t-78.5 -33t-79 33t-33 79zM452 886q0 45 32.5 78t79.5 33q46 0 78.5 -33t32.5 -78q0 -46 -32.5 -78.5t-78.5 -32.5q-47 0 -79.5 32.5t-32.5 78.5z" />
<glyph unicode="&#xf8;" d="M52 464q0 206 128 339.5t311 133.5q67 0 123 -12q32 -7 75 -22l121 230h81l-135 -261q85 -67 127 -130q79 -118 79 -281q0 -200 -123.5 -346t-326.5 -146q-61 0 -119 16q-32 8 -88 31l-128 -244h-76l147 282q-82 61 -139 166t-57 244zM239 513q0 -97 23 -181.5t55 -147.5 l322 621q-36 36 -74.5 54.5t-88.5 18.5q-79 0 -137 -53q-100 -90 -100 -312zM360 118q53 -53 94 -72.5t89 -19.5q111 0 172 102.5t61 270.5q0 127 -43 246q-27 75 -46 99z" />
<glyph unicode="&#xf9;" d="M18 898v28h299v-640q0 -68 19 -109q37 -76 136 -76q68 0 133 45q37 25 75 69v548q0 77 -30 101t-120 29v33h323v-704q0 -68 24.5 -93.5t103.5 -22.5v-28q-55 -15 -81 -22.5t-87 -27.5q-26 -9 -114 -43q-5 0 -6 4.5t-1 10.5v161q-68 -81 -124 -120q-85 -60 -180 -60 q-87 0 -164 62q-78 61 -78 205v519q0 80 -34 107q-22 17 -94 24zM215 1324q0 29 21 47.5t48 18.5q26 0 48 -14.5t42 -34.5l301 -303h-83l-315 199q-33 21 -47.5 41t-14.5 46zM513 938z" />
<glyph unicode="&#xfa;" d="M18 898v28h299v-640q0 -68 19 -109q37 -76 136 -76q68 0 133 45q37 25 75 69v548q0 77 -30 101t-120 29v33h323v-704q0 -68 24.5 -93.5t103.5 -22.5v-28q-55 -15 -81 -22.5t-87 -27.5q-26 -9 -114 -43q-5 0 -6 4.5t-1 10.5v161q-68 -81 -124 -120q-85 -60 -180 -60 q-87 0 -164 62q-78 61 -78 205v519q0 80 -34 107q-22 17 -94 24zM368 1038l301 303q16 16 40 33t51 17q26 0 47.5 -18.5t21.5 -48.5q0 -29 -16 -48t-47 -39l-315 -199h-83zM513 938z" />
<glyph unicode="&#xfb;" d="M18 898v28h299v-640q0 -68 19 -109q37 -76 136 -76q68 0 133 45q37 25 75 69v548q0 77 -30 101t-120 29v33h323v-704q0 -68 24.5 -93.5t103.5 -22.5v-28q-55 -15 -81 -22.5t-87 -27.5q-26 -9 -114 -43q-5 0 -6 4.5t-1 10.5v161q-68 -81 -124 -120q-85 -60 -180 -60 q-87 0 -164 62q-78 61 -78 205v519q0 80 -34 107q-22 17 -94 24zM193 1038l256 341h128l256 -341h-71l-249 211l-249 -211h-71zM513 938z" />
<glyph unicode="&#xfc;" d="M18 898v28h299v-640q0 -68 19 -109q37 -76 136 -76q68 0 133 45q37 25 75 69v548q0 77 -30 101t-120 29v33h323v-704q0 -68 24.5 -93.5t103.5 -22.5v-28q-55 -15 -81 -22.5t-87 -27.5q-26 -9 -114 -43q-5 0 -6 4.5t-1 10.5v161q-68 -81 -124 -120q-85 -60 -180 -60 q-87 0 -164 62q-78 61 -78 205v519q0 80 -34 107q-22 17 -94 24zM208 1173q0 42 29.5 72t71.5 30q43 0 72.5 -30t29.5 -72t-29.5 -72t-72.5 -30q-42 0 -71.5 30t-29.5 72zM513 938zM615 1173q0 42 30 72t72 30q43 0 72.5 -30t29.5 -72t-29.5 -72t-72.5 -30q-42 0 -72 30 t-30 72z" />
<glyph unicode="&#xfd;" d="M28 891v28h422v-31q-50 -1 -74 -9q-46 -13 -46 -51q0 -14 5 -28.5t18 -43.5l234 -519l188 523q3 8 9.5 36t6.5 38q0 26 -18 38t-46 14l-31 2v31h275v-31q-41 -5 -61.5 -28t-35.5 -64l-315 -834q-82 -216 -157 -313t-190 -97q-56 0 -105 28t-49 89q0 40 29.5 65.5 t74.5 25.5q26 0 77.5 -19t73.5 -19q56 0 118 130t62 174q0 9 -3 22t-7 23l-320 692q-34 74 -59.5 97.5t-75.5 30.5zM359 1038l301 303q16 16 40 33t51 17q26 0 47.5 -18.5t21.5 -48.5q0 -29 -16 -48t-47 -39l-315 -199h-83zM504 938z" />
<glyph unicode="&#xfe;" d="M14 -413q81 10 110.5 37.5t29.5 109.5v1410q0 65 -23.5 95.5t-76.5 30.5q-7 0 -14.5 -0.5t-16.5 -1.5v35q90 22 169.5 45.5t131.5 44.5l5 -4v-598q68 70 130 110q72 44 163 44q157 0 254.5 -125.5t97.5 -308.5q0 -205 -115 -370q-126 -165 -309 -165q-59 0 -99 14 q-64 21 -120 81v-327q0 -100 33.5 -123.5t144.5 -31.5v-35h-495v33zM331 184q25 -65 78.5 -100t120.5 -35q171 0 236 188q34 99 34 236q0 158 -81 253.5t-192 95.5q-72 0 -134 -45.5t-62 -89.5v-503z" />
<glyph unicode="&#xff;" d="M28 891v28h422v-31q-50 -1 -74 -9q-46 -13 -46 -51q0 -14 5 -28.5t18 -43.5l234 -519l188 523q3 8 9.5 36t6.5 38q0 26 -18 38t-46 14l-31 2v31h275v-31q-41 -5 -61.5 -28t-35.5 -64l-315 -834q-82 -216 -157 -313t-190 -97q-56 0 -105 28t-49 89q0 40 29.5 65.5 t74.5 25.5q26 0 77.5 -19t73.5 -19q56 0 118 130t62 174q0 9 -3 22t-7 23l-320 692q-34 74 -59.5 97.5t-75.5 30.5zM199 1173q0 42 29.5 72t71.5 30q43 0 72.5 -30t29.5 -72t-29.5 -72t-72.5 -30q-42 0 -71.5 30t-29.5 72zM504 938zM606 1173q0 42 30 72t72 30 q43 0 72.5 -30t29.5 -72t-29.5 -72t-72.5 -30q-42 0 -72 30t-30 72z" />
<glyph unicode="&#x152;" horiz-adv-x="1821" d="M56 681q0 224 103 399q170 287 567 287q42 0 158.5 -6t162.5 -6h669v-289h-48q-20 145 -87.5 180.5t-307.5 35.5q-133 0 -160.5 -8.5t-27.5 -41.5v-483q331 0 394.5 26t79.5 173h45v-479h-45q-9 131 -63.5 165.5t-222.5 34.5q-42 0 -83 -0.5t-103 -0.5v-491 q0 -55 17 -71.5t50 -20.5q23 -3 49 -4t103 -1q194 0 277.5 42.5t179.5 220.5h50l-90 -343h-718q-55 0 -189.5 -6t-145.5 -6q-363 0 -518 287q-96 176 -96 406zM291 677q0 -258 83.5 -435.5t297.5 -177.5q127 0 168 53t41 150v811q0 89 -25 135q-46 83 -178 83 q-165 0 -276 -149.5t-111 -469.5z" />
<glyph unicode="&#x153;" horiz-adv-x="1479" d="M55 448q0 203 124.5 352t314.5 149q113 0 181 -46t111 -112q48 78 115 117.5t154 39.5q105 0 189 -60q135 -96 135 -315h-519q8 -174 43 -271q64 -177 218 -177q90 0 168 64q43 36 102 114l24 -14q-76 -144 -134 -204q-98 -102 -232 -102q-114 0 -188 73q-41 41 -77 119 q-45 -91 -119.5 -144t-186.5 -53q-189 0 -306 138t-117 332zM241 525q0 -173 54 -330.5t194 -157.5q133 0 183 152q29 88 29 238q0 155 -30 260q-56 201 -207 201q-142 0 -195 -154q-28 -82 -28 -209zM858 635h327q2 9 2.5 15.5t0.5 14.5q0 67 -24 125q-40 98 -133 98 q-80 0 -128 -65.5t-45 -187.5z" />
<glyph unicode="&#x178;" horiz-adv-x="1479" d="M45 1317v38h573v-38q-72 2 -108 -11t-36 -56q0 -13 6 -32.5t27 -51.5l303 -455l294 462q18 29 23.5 48t5.5 28q0 44 -47 58q-28 9 -96 10v38h448v-38q-62 -3 -111 -37q-76 -53 -171 -197l-303 -462v-399q0 -119 38.5 -148.5t172.5 -36.5v-37h-626v37q139 8 172.5 41.5 t33.5 167.5v356l-268 393q-139 203 -195 260.5t-136 61.5zM436 1590q0 42 29.5 72t71.5 30q43 0 72.5 -30t29.5 -72t-29.5 -72t-72.5 -30q-42 0 -71.5 30t-29.5 72zM741 1355zM843 1590q0 42 30 72t72 30q43 0 72.5 -30t29.5 -72t-29.5 -72t-72.5 -30q-42 0 -72 30t-30 72z " />
<glyph unicode="&#x2c6;" horiz-adv-x="682" d="M-34 1038l256 341h128l256 -341h-71l-249 211l-249 -211h-71zM286 938z" />
<glyph unicode="&#x2dc;" horiz-adv-x="682" d="M-53 1090q26 107 86 156.5t131 49.5q33 0 65.5 -9.5t71.5 -28.5l49 -24q35 -17 56.5 -23.5t41.5 -6.5q51 0 84 38q22 24 34 64h59q-5 -54 -39 -112q-62 -104 -180 -104q-42 0 -78.5 12t-81.5 35l-47 24q-17 8 -38.5 14.5t-39.5 6.5q-51 0 -81 -34q-16 -19 -31 -58h-62z M286 938z" />
<glyph unicode="&#x2000;" horiz-adv-x="918" />
<glyph unicode="&#x2001;" horiz-adv-x="1837" />
<glyph unicode="&#x2002;" horiz-adv-x="918" />
<glyph unicode="&#x2003;" horiz-adv-x="1837" />
<glyph unicode="&#x2004;" horiz-adv-x="612" />
<glyph unicode="&#x2005;" horiz-adv-x="459" />
<glyph unicode="&#x2006;" horiz-adv-x="306" />
<glyph unicode="&#x2007;" horiz-adv-x="306" />
<glyph unicode="&#x2008;" horiz-adv-x="229" />
<glyph unicode="&#x2009;" horiz-adv-x="367" />
<glyph unicode="&#x200a;" horiz-adv-x="102" />
<glyph unicode="&#x2010;" horiz-adv-x="682" d="M80 398v128h503v-128h-503z" />
<glyph unicode="&#x2011;" horiz-adv-x="682" d="M80 398v128h503v-128h-503z" />
<glyph unicode="&#x2012;" horiz-adv-x="682" d="M80 398v128h503v-128h-503z" />
<glyph unicode="&#x2013;" d="M-5 412v99h1028v-99h-1028z" />
<glyph unicode="&#x2014;" horiz-adv-x="2048" d="M241 412v99h1560v-99h-1560z" />
<glyph unicode="&#x2018;" horiz-adv-x="682" d="M186 1062q0 107 72.5 193.5t158.5 125.5l19 -40q-106 -61 -148 -143q-21 -41 -21 -75q0 -11 6 -18.5t21 -7.5q65 7 70 7q37 0 73.5 -26.5t36.5 -78.5q0 -41 -28.5 -79.5t-95.5 -38.5q-72 0 -118 55.5t-46 125.5z" />
<glyph unicode="&#x2019;" horiz-adv-x="682" d="M191 1268q0 39 29 77.5t95 38.5q69 0 116.5 -52.5t47.5 -130.5q0 -105 -72.5 -192t-158.5 -125l-19 40q70 40 119.5 98.5t49.5 119.5q0 14 -8 20t-19 6q-59 -7 -69 -7q-39 0 -75 27t-36 80z" />
<glyph unicode="&#x201a;" horiz-adv-x="682" d="M191 110q0 56 34.5 86.5t82.5 30.5q74 0 121 -52.5t47 -142.5q0 -96 -79 -186.5t-151 -118.5l-19 40q88 54 128 115.5t40 99.5q0 14 -6.5 21.5t-19.5 7.5l-68 -7q-30 0 -58 15q-52 27 -52 91z" />
<glyph unicode="&#x201c;" horiz-adv-x="909" d="M55 1070q0 95 71.5 183t159.5 128l19 -40q-70 -40 -119.5 -99.5t-49.5 -120.5q0 -12 7.5 -18t19.5 -6q65 7 70 7q33 0 71.5 -24t38.5 -82q0 -49 -32 -83t-91 -34q-69 0 -117 53.5t-48 135.5zM525 1062q0 107 72.5 193.5t158.5 125.5l19 -40q-70 -40 -119.5 -98.5 t-49.5 -119.5q0 -11 6 -18.5t21 -7.5q64 7 70 7q37 0 73.5 -26.5t36.5 -78.5q0 -41 -28.5 -79.5t-95.5 -38.5q-72 0 -118 55.5t-46 125.5z" />
<glyph unicode="&#x201d;" horiz-adv-x="909" d="M71 1269q0 42 30 78.5t93 36.5q72 0 118 -55t46 -126q0 -110 -73.5 -195.5t-157.5 -123.5l-18 40q71 45 119.5 99.5t48.5 117.5q0 11 -5.5 19t-20.5 8q-60 -7 -70 -7q-33 0 -63 18q-47 29 -47 90zM540 1267q0 50 32 83.5t91 33.5q69 0 116.5 -53.5t47.5 -135.5 q0 -96 -71.5 -184t-158.5 -127l-19 40q106 61 148 143q21 42 21 77q0 11 -7.5 17.5t-20.5 6.5q-59 -7 -68 -7q-40 0 -75.5 27t-35.5 79z" />
<glyph unicode="&#x201e;" horiz-adv-x="909" d="M71 94q0 41 29.5 77.5t93.5 36.5q72 0 118 -55t46 -125q0 -114 -76 -199t-155 -121l-18 40q107 68 147 141q21 39 21 78q0 10 -4.5 17.5t-21.5 7.5q-65 -7 -70 -7q-35 0 -61 14q-49 26 -49 95zM540 91q0 49 32 83t91 34q69 0 116.5 -53t47.5 -135q0 -99 -73 -187 t-157 -125l-19 40q69 39 119 99.5t50 122.5q0 11 -7.5 16.5t-20.5 5.5q-64 -7 -69 -7q-38 0 -74 27t-36 79z" />
<glyph unicode="&#x2022;" horiz-adv-x="717" d="M61 680q0 121 85.5 206t206.5 85t205 -85t84 -206q0 -122 -85 -208t-204 -86q-122 0 -207 86t-85 208z" />
<glyph unicode="&#x2026;" horiz-adv-x="2048" d="M227 90q0 48 33 82t81 34q47 0 80.5 -34.5t33.5 -81.5q0 -45 -33 -79.5t-81 -34.5q-47 0 -80.5 33.5t-33.5 80.5zM907 90q0 47 34 81.5t82 34.5q44 0 79 -32.5t35 -83.5q0 -47 -33.5 -80.5t-80.5 -33.5q-48 0 -82 33t-34 81zM1592 90q0 48 33.5 82t80.5 34t80.5 -34 t33.5 -82q0 -45 -33 -79.5t-81 -34.5q-47 0 -80.5 33.5t-33.5 80.5z" />
<glyph unicode="&#x202f;" horiz-adv-x="367" />
<glyph unicode="&#x2039;" horiz-adv-x="682" d="M127 459q38 38 102 95q81 72 118 105q89 81 144 138q30 30 47 45.5t23 15.5q9 0 15.5 -7t6.5 -16q0 -10 -29.5 -58.5t-65.5 -99.5q-36 -50 -89 -114t-56 -67.5t-26 -31.5q92 -112 177.5 -230.5t85.5 -137.5q0 -11 -6 -17t-15 -6q-6 0 -11.5 4t-12.5 12q-10 10 -38.5 37.5 t-32.5 31.5l-223 204z" />
<glyph unicode="&#x203a;" horiz-adv-x="682" d="M85 836q0 10 6.5 16t14.5 6q7 0 21.5 -13.5t48.5 -47.5q90 -92 227 -212.5t137 -125.5l-7 -7l-12 -9l-95 -81l-223 -204q-15 -14 -43 -43t-40 -37l-12 -5q-9 0 -15 6t-6 17q0 23 116 178q76 102 147 190q-151 189 -195 249q-70 95 -70 123z" />
<glyph unicode="&#x205f;" horiz-adv-x="459" />
<glyph unicode="&#x20ac;" horiz-adv-x="1524" d="M26 495l48 110h1047l-48 -110h-1047zM26 715l48 110h1139l-46 -110h-1141zM204 660q0 280 190 470t470 190t476 -196l-48 -111q-183 197 -428 197q-230 0 -390 -160t-160 -390t160 -390t390 -160q250 0 428 201v-162q-173 -149 -428 -149q-280 0 -470 190t-190 470z" />
<glyph unicode="&#x2122;" horiz-adv-x="2007" d="M63 1097l17 258h569l19 -258h-36q-24 139 -85 187q-36 29 -121 36v-571q0 -44 23 -58.5t89 -15.5v-36h-344v36q62 2 86.5 15t24.5 59v571q-94 -9 -133 -47q-53 -44 -73 -176h-36zM756 639v36q61 10 82.5 27t21.5 73v471q0 49 -19 61t-85 13v35h239l190 -526l177 526h228 v-35q-65 -3 -80 -14.5t-15 -59.5v-497q0 -45 19.5 -57.5t75.5 -16.5v-36h-313v36q62 3 78.5 19t16.5 55v497l-209 -607h-33l-232 645v-512q0 -58 25.5 -75t88.5 -22v-36h-256z" />
<glyph unicode="&#x25fc;" horiz-adv-x="920" d="M0 0v920h920v-920h-920z" />
</font>
</defs>
</svg>
